<svg width="16" height="19" viewBox="0 0 16 19" fill="none" xmlns="http://www.w3.org/2000/svg">
<g clip-path="url(#clip0_3960_116589)">
<path d="M8.92609 1.76487C10.1123 0.201692 11.761 0.194336 11.761 0.194336C11.761 0.194336 12.0056 1.66372 10.8277 3.07886C9.56975 4.59331 8.1399 4.3432 8.1399 4.3432C8.1399 4.3432 7.87232 3.15518 8.92609 1.76487ZM8.29162 5.37122C8.90126 5.37122 10.0332 4.53262 11.5072 4.53262C14.0432 4.53262 15.0409 6.33487 15.0409 6.33487C15.0409 6.33487 13.0897 7.33439 13.0897 9.75823C13.0897 12.4892 15.5209 13.4308 15.5209 13.4308C15.5209 13.4308 13.8207 18.215 11.5256 18.215C10.4709 18.215 9.64975 17.5042 8.54081 17.5042C7.40797 17.5042 6.28432 18.2417 5.5533 18.2417C3.4568 18.2417 0.808594 13.703 0.808594 10.0562C0.808594 6.46912 3.05038 4.58503 5.15331 4.58503C6.51971 4.58503 7.58084 5.37214 8.2907 5.37214V5.37122H8.29162Z" fill="white"/>
</g>
<defs>
<clipPath id="clip0_3960_116589">
<rect width="14.7123" height="18.3903" fill="white" transform="translate(0.804688 0.193848)"/>
</clipPath>
</defs>
</svg>
