<svg width="28" height="28" viewBox="0 0 28 28" fill="none" xmlns="http://www.w3.org/2000/svg">
<path fill-rule="evenodd" clip-rule="evenodd" d="M13.9026 3.47559C11.0707 3.47559 10.7161 3.4874 9.60392 3.53815C8.49378 3.58889 7.73539 3.76546 7.07223 4.02335C6.37709 4.28473 5.7466 4.69486 5.22525 5.22594C4.69501 5.74669 4.28463 6.37674 4.02266 7.07223C3.76615 7.73539 3.58889 8.49448 3.53815 9.60461C3.4881 10.7161 3.47559 11.07 3.47559 13.9026C3.47559 16.7353 3.4874 17.0892 3.53815 18.2014C3.58889 19.3115 3.76546 20.0699 4.02335 20.7331C4.28473 21.4282 4.69486 22.0587 5.22594 22.58C5.74671 23.1103 6.37675 23.5206 7.07223 23.7826C7.73539 24.0398 8.49378 24.2164 9.60392 24.2671C10.7161 24.3179 11.0707 24.3297 13.9026 24.3297C16.7346 24.3297 17.0892 24.3179 18.2014 24.2671C19.3115 24.2164 20.0699 24.0398 20.7331 23.7819C21.4282 23.5206 22.0587 23.1104 22.58 22.5794C23.1103 22.0586 23.5207 21.4286 23.7826 20.7331C24.0398 20.0699 24.2164 19.3115 24.2671 18.2014C24.3179 17.0892 24.3297 16.7346 24.3297 13.9026C24.3297 11.0707 24.3179 10.7161 24.2671 9.60392C24.2164 8.49378 24.0398 7.73539 23.7819 7.07223C23.5202 6.37644 23.1098 5.74613 22.5794 5.22525C22.0586 4.69501 21.4286 4.28463 20.7331 4.02266C20.0699 3.76615 19.3108 3.58889 18.2007 3.53815C17.0892 3.4881 16.7353 3.47559 13.9026 3.47559ZM13.9026 5.35454C16.6867 5.35454 17.0169 5.36497 18.1166 5.41502C19.1329 5.46159 19.6848 5.63051 20.0525 5.77441C20.5391 5.96279 20.8867 6.1894 21.2516 6.55365C21.6166 6.9186 21.8425 7.26617 22.0309 7.75277C22.1741 8.12049 22.3437 8.67243 22.3903 9.68872C22.4403 10.7884 22.4508 11.1186 22.4508 13.9026C22.4508 16.6867 22.4403 17.0169 22.3903 18.1166C22.3437 19.1329 22.1748 19.6848 22.0309 20.0525C21.864 20.5054 21.5977 20.9152 21.2516 21.2516C20.9152 21.5978 20.5055 21.8641 20.0525 22.0309C19.6848 22.1741 19.1329 22.3437 18.1166 22.3903C17.0169 22.4403 16.6874 22.4508 13.9026 22.4508C11.1179 22.4508 10.7884 22.4403 9.68872 22.3903C8.67243 22.3437 8.12049 22.1748 7.75277 22.0309C7.29985 21.864 6.89011 21.5977 6.55365 21.2516C6.2076 20.9152 5.94133 20.5054 5.77441 20.0525C5.63121 19.6848 5.46159 19.1329 5.41502 18.1166C5.36497 17.0169 5.35454 16.6867 5.35454 13.9026C5.35454 11.1186 5.36497 10.7884 5.41502 9.68872C5.46159 8.67243 5.63051 8.12049 5.77441 7.75277C5.96279 7.26617 6.1894 6.9186 6.55365 6.55365C6.89006 6.20751 7.29982 5.94122 7.75277 5.77441C8.12049 5.63121 8.67243 5.46159 9.68872 5.41502C10.7884 5.36497 11.1186 5.35454 13.9026 5.35454V5.35454Z" fill="#2F2021"/>
<path fill-rule="evenodd" clip-rule="evenodd" d="M13.903 17.3816C13.4461 17.3816 12.9937 17.2916 12.5715 17.1168C12.1494 16.9419 11.7659 16.6856 11.4428 16.3626C11.1198 16.0395 10.8635 15.656 10.6886 15.2338C10.5138 14.8117 10.4238 14.3593 10.4238 13.9024C10.4238 13.4455 10.5138 12.9931 10.6886 12.571C10.8635 12.1489 11.1198 11.7654 11.4428 11.4423C11.7659 11.1192 12.1494 10.8629 12.5715 10.6881C12.9937 10.5133 13.4461 10.4233 13.903 10.4233C14.8257 10.4233 15.7106 10.7898 16.3631 11.4423C17.0156 12.0948 17.3821 12.9797 17.3821 13.9024C17.3821 14.8252 17.0156 15.7101 16.3631 16.3626C15.7106 17.015 14.8257 17.3816 13.903 17.3816V17.3816ZM13.903 8.54292C12.4815 8.54292 11.1183 9.10758 10.1132 10.1127C9.10812 11.1178 8.54346 12.481 8.54346 13.9024C8.54346 15.3239 9.10812 16.6871 10.1132 17.6922C11.1183 18.6973 12.4815 19.2619 13.903 19.2619C15.3244 19.2619 16.6876 18.6973 17.6927 17.6922C18.6978 16.6871 19.2625 15.3239 19.2625 13.9024C19.2625 12.481 18.6978 11.1178 17.6927 10.1127C16.6876 9.10758 15.3244 8.54292 13.903 8.54292V8.54292ZM20.8217 8.4456C20.8217 8.7816 20.6882 9.10384 20.4506 9.34142C20.213 9.57901 19.8908 9.71249 19.5548 9.71249C19.2188 9.71249 18.8965 9.57901 18.659 9.34142C18.4214 9.10384 18.2879 8.7816 18.2879 8.4456C18.2879 8.1096 18.4214 7.78736 18.659 7.54977C18.8965 7.31219 19.2188 7.17871 19.5548 7.17871C19.8908 7.17871 20.213 7.31219 20.4506 7.54977C20.6882 7.78736 20.8217 8.1096 20.8217 8.4456" fill="#2F2021"/>
</svg>
