<svg width="62" height="91" viewBox="0 0 62 91" fill="none" xmlns="http://www.w3.org/2000/svg">
<path d="M61.44 28.0432H42.9802L35.4653 0L31.2067 1.14143L38.4203 28.0432H23.0197L30.2275 1.14143L25.9747 0L18.4598 28.0432H0V32.4466H17.2778L10.07 59.3484L14.3287 60.4898L21.8435 32.4466H39.5965L47.1114 60.4898L51.37 59.3484L44.1622 32.4466H61.44V28.0432Z" fill="black"/>
<path d="M10.2509 83.782H5.23907L4.01074 87.073H2.19141L6.65282 75.4502H8.84876L13.3102 87.073H11.4677L10.2509 83.782ZM5.75474 82.3683H9.72945L7.75948 77.0146H7.72472L5.75474 82.3683Z" fill="black"/>
<path d="M21.647 81.7194V87.0731H19.9726V81.9917C19.9726 80.5606 19.4337 79.8421 18.2807 79.8421C17.0755 79.8421 16.0964 80.5721 16.0964 82.7044V87.0673H14.4219V78.6485H16.0848V80.3114H16.1195C16.3455 79.3496 17.1914 78.4399 18.611 78.4399C20.8011 78.4457 21.647 79.8942 21.647 81.7194Z" fill="black"/>
<path d="M24.4175 78.6543C25.2461 80.9314 26.0804 83.0983 26.9089 85.3638H26.9263C27.6274 83.2142 28.4212 80.9198 29.1744 78.6543H30.9474C29.2845 83.1794 28.8963 84.0775 27.1871 88.7185C26.8104 89.7267 26.1789 90.3293 25.0375 90.3293H23.7512V88.9619H24.6782C25.4083 88.9619 25.5879 88.5737 25.8197 87.9827L26.0804 87.2816C24.8926 84.2513 23.7686 81.4876 22.6445 78.6543H24.4175Z" fill="black"/>
<path d="M31.207 82.8729C31.207 80.3178 32.9626 78.4463 35.4888 78.4463C37.9976 78.4463 39.7532 80.3178 39.7532 82.8729C39.7532 85.4281 37.9976 87.2822 35.4888 87.2822C32.9626 87.288 31.207 85.4281 31.207 82.8729ZM38.073 82.8729C38.073 81.1463 37.0011 79.8311 35.483 79.8311C33.9534 79.8311 32.8757 81.1521 32.8757 82.8729C32.8757 84.5822 33.9476 85.9032 35.483 85.9032C37.0011 85.9032 38.073 84.5822 38.073 82.8729Z" fill="black"/>
<path d="M48.3834 81.7194V87.0731H46.709V81.9917C46.709 80.5606 46.1701 79.8421 45.0171 79.8421C43.8119 79.8421 42.8385 80.5721 42.8385 82.7044V87.0673H41.1641V78.6485H42.827V80.3114H42.8617C43.0877 79.3496 43.9336 78.4399 45.3532 78.4399C47.5375 78.4457 48.3834 79.8942 48.3834 81.7194Z" fill="black"/>
<path d="M57.8416 83.3133H51.3117C51.4276 84.9588 52.4358 85.9206 53.8669 85.9206C54.9098 85.9206 55.7731 85.515 56.0628 84.588H57.7257C57.239 86.332 55.8021 87.288 53.8669 87.288C51.3581 87.288 49.6836 85.4803 49.6836 82.8266C49.6836 80.2888 51.4392 78.4463 53.8495 78.4463C56.7813 78.4463 57.8242 80.7407 57.8532 83.0236C57.859 83.0873 57.859 83.2148 57.8416 83.3133ZM56.1613 82.0618C56.0339 80.6596 55.2517 79.7847 53.8495 79.7847C52.4358 79.7847 51.5203 80.6944 51.3233 82.0618H56.1613Z" fill="black"/>
</svg>
