<svg width="29" height="28" viewBox="0 0 29 28" fill="none" xmlns="http://www.w3.org/2000/svg">
<path d="M23.9216 9.17549C23.9357 9.37976 23.9357 9.58404 23.9357 9.79019C23.9357 16.0718 19.1537 23.3164 10.4095 23.3164V23.3126C7.82647 23.3164 5.29707 22.5765 3.12256 21.1814C3.49816 21.2266 3.87564 21.2492 4.25406 21.2501C6.39468 21.252 8.47411 20.5338 10.1582 19.2112C8.12393 19.1726 6.34008 17.8462 5.71691 15.9099C6.42951 16.0473 7.16376 16.0191 7.86318 15.828C5.64537 15.3799 4.04979 13.4313 4.04979 11.1683C4.04979 11.1476 4.04979 11.1278 4.04979 11.1081C4.71061 11.4761 5.45051 11.6804 6.20735 11.703C4.1185 10.307 3.47462 7.52814 4.73603 5.35551C7.14964 8.32546 10.7108 10.131 14.5336 10.3221C14.1504 8.67093 14.6738 6.94074 15.9089 5.78006C17.8236 3.9802 20.8349 4.07245 22.6348 5.98621C23.6995 5.77629 24.7199 5.38563 25.6537 4.83212C25.2988 5.93255 24.5561 6.86731 23.5639 7.4613C24.5062 7.35022 25.4268 7.09794 26.2938 6.71293C25.6556 7.66934 24.8517 8.50243 23.9216 9.17549Z" fill="#2F2021"/>
</svg>
