<svg style="height:auto;max-width:100%;width:100%;padding:10px;background-color:#FFFFFF" viewBox="0 0 150 150" height="150" width="150" xmlns="http://www.w3.org/2000/svg"><path d="M 0 0 L 5 0 L 5 5 L 0 5 Z" fill="#000000" transform="matrix(1,0,0,1,0,0)"/><path d="M 0 0 L 5 0 L 5 5 L 0 5 Z" fill="#000000" transform="matrix(1,0,0,1,5,0)"/><path d="M 0 0 L 6 0 L 6 5 L 0 5 Z" fill="#000000" transform="matrix(1,0,0,1,10,0)"/><path d="M 0 0 L 5 0 L 5 5 L 0 5 Z" fill="#000000" transform="matrix(1,0,0,1,16,0)"/><path d="M 0 0 L 5 0 L 5 5 L 0 5 Z" fill="#000000" transform="matrix(1,0,0,1,21,0)"/><path d="M 0 0 L 5 0 L 5 5 L 0 5 Z" fill="#000000" transform="matrix(1,0,0,1,26,0)"/><path d="M 0 0 L 5 0 L 5 5 L 0 5 Z" fill="#000000" transform="matrix(1,0,0,1,31,0)"/><path d="M 0 0 L 5 0 L 5 5 L 0 5 Z" fill="white" transform="matrix(1,0,0,1,36,0)"/><path d="M 0 0 L 6 0 L 6 5 L 0 5 Z" fill="#000000" transform="matrix(1,0,0,1,41,0)"/><path d="M 0 0 L 5 0 L 5 5 L 0 5 Z" fill="#000000" transform="matrix(1,0,0,1,47,0)"/><path d="M 0 0 L 5 0 L 5 5 L 0 5 Z" fill="white" transform="matrix(1,0,0,1,52,0)"/><path d="M 0 0 L 5 0 L 5 5 L 0 5 Z" fill="white" transform="matrix(1,0,0,1,57,0)"/><path d="M 0 0 L 5 0 L 5 5 L 0 5 Z" fill="white" transform="matrix(1,0,0,1,62,0)"/><path d="M 0 0 L 5 0 L 5 5 L 0 5 Z" fill="white" transform="matrix(1,0,0,1,67,0)"/><path d="M 0 0 L 6 0 L 6 5 L 0 5 Z" fill="white" transform="matrix(1,0,0,1,72,0)"/><path d="M 0 0 L 5 0 L 5 5 L 0 5 Z" fill="white" transform="matrix(1,0,0,1,78,0)"/><path d="M 0 0 L 5 0 L 5 5 L 0 5 Z" fill="#000000" transform="matrix(1,0,0,1,83,0)"/><path d="M 0 0 L 5 0 L 5 5 L 0 5 Z" fill="#000000" transform="matrix(1,0,0,1,88,0)"/><path d="M 0 0 L 5 0 L 5 5 L 0 5 Z" fill="#000000" transform="matrix(1,0,0,1,93,0)"/><path d="M 0 0 L 5 0 L 5 5 L 0 5 Z" fill="#000000" transform="matrix(1,0,0,1,98,0)"/><path d="M 0 0 L 6 0 L 6 5 L 0 5 Z" fill="#000000" transform="matrix(1,0,0,1,103,0)"/><path d="M 0 0 L 5 0 L 5 5 L 0 5 Z" fill="white" transform="matrix(1,0,0,1,109,0)"/><path d="M 0 0 L 5 0 L 5 5 L 0 5 Z" fill="#000000" transform="matrix(1,0,0,1,114,0)"/><path d="M 0 0 L 5 0 L 5 5 L 0 5 Z" fill="#000000" transform="matrix(1,0,0,1,119,0)"/><path d="M 0 0 L 5 0 L 5 5 L 0 5 Z" fill="#000000" transform="matrix(1,0,0,1,124,0)"/><path d="M 0 0 L 5 0 L 5 5 L 0 5 Z" fill="#000000" transform="matrix(1,0,0,1,129,0)"/><path d="M 0 0 L 6 0 L 6 5 L 0 5 Z" fill="#000000" transform="matrix(1,0,0,1,134,0)"/><path d="M 0 0 L 5 0 L 5 5 L 0 5 Z" fill="#000000" transform="matrix(1,0,0,1,140,0)"/><path d="M 0 0 L 5 0 L 5 5 L 0 5 Z" fill="#000000" transform="matrix(1,0,0,1,145,0)"/><path d="M 0 0 L 5 0 L 5 5 L 0 5 Z" fill="#000000" transform="matrix(1,0,0,1,0,5)"/><path d="M 0 0 L 5 0 L 5 5 L 0 5 Z" fill="white" transform="matrix(1,0,0,1,5,5)"/><path d="M 0 0 L 6 0 L 6 5 L 0 5 Z" fill="white" transform="matrix(1,0,0,1,10,5)"/><path d="M 0 0 L 5 0 L 5 5 L 0 5 Z" fill="white" transform="matrix(1,0,0,1,16,5)"/><path d="M 0 0 L 5 0 L 5 5 L 0 5 Z" fill="white" transform="matrix(1,0,0,1,21,5)"/><path d="M 0 0 L 5 0 L 5 5 L 0 5 Z" fill="white" transform="matrix(1,0,0,1,26,5)"/><path d="M 0 0 L 5 0 L 5 5 L 0 5 Z" fill="#000000" transform="matrix(1,0,0,1,31,5)"/><path d="M 0 0 L 5 0 L 5 5 L 0 5 Z" fill="white" transform="matrix(1,0,0,1,36,5)"/><path d="M 0 0 L 6 0 L 6 5 L 0 5 Z" fill="white" transform="matrix(1,0,0,1,41,5)"/><path d="M 0 0 L 5 0 L 5 5 L 0 5 Z" fill="white" transform="matrix(1,0,0,1,47,5)"/><path d="M 0 0 L 5 0 L 5 5 L 0 5 Z" fill="white" transform="matrix(1,0,0,1,52,5)"/><path d="M 0 0 L 5 0 L 5 5 L 0 5 Z" fill="white" transform="matrix(1,0,0,1,57,5)"/><path d="M 0 0 L 5 0 L 5 5 L 0 5 Z" fill="white" transform="matrix(1,0,0,1,62,5)"/><path d="M 0 0 L 5 0 L 5 5 L 0 5 Z" fill="#000000" transform="matrix(1,0,0,1,67,5)"/><path d="M 0 0 L 6 0 L 6 5 L 0 5 Z" fill="#000000" transform="matrix(1,0,0,1,72,5)"/><path d="M 0 0 L 5 0 L 5 5 L 0 5 Z" fill="white" transform="matrix(1,0,0,1,78,5)"/><path d="M 0 0 L 5 0 L 5 5 L 0 5 Z" fill="white" transform="matrix(1,0,0,1,83,5)"/><path d="M 0 0 L 5 0 L 5 5 L 0 5 Z" fill="#000000" transform="matrix(1,0,0,1,88,5)"/><path d="M 0 0 L 5 0 L 5 5 L 0 5 Z" fill="white" transform="matrix(1,0,0,1,93,5)"/><path d="M 0 0 L 5 0 L 5 5 L 0 5 Z" fill="white" transform="matrix(1,0,0,1,98,5)"/><path d="M 0 0 L 6 0 L 6 5 L 0 5 Z" fill="#000000" transform="matrix(1,0,0,1,103,5)"/><path d="M 0 0 L 5 0 L 5 5 L 0 5 Z" fill="white" transform="matrix(1,0,0,1,109,5)"/><path d="M 0 0 L 5 0 L 5 5 L 0 5 Z" fill="#000000" transform="matrix(1,0,0,1,114,5)"/><path d="M 0 0 L 5 0 L 5 5 L 0 5 Z" fill="white" transform="matrix(1,0,0,1,119,5)"/><path d="M 0 0 L 5 0 L 5 5 L 0 5 Z" fill="white" transform="matrix(1,0,0,1,124,5)"/><path d="M 0 0 L 5 0 L 5 5 L 0 5 Z" fill="white" transform="matrix(1,0,0,1,129,5)"/><path d="M 0 0 L 6 0 L 6 5 L 0 5 Z" fill="white" transform="matrix(1,0,0,1,134,5)"/><path d="M 0 0 L 5 0 L 5 5 L 0 5 Z" fill="white" transform="matrix(1,0,0,1,140,5)"/><path d="M 0 0 L 5 0 L 5 5 L 0 5 Z" fill="#000000" transform="matrix(1,0,0,1,145,5)"/><path d="M 0 0 L 5 0 L 5 6 L 0 6 Z" fill="#000000" transform="matrix(1,0,0,1,0,10)"/><path d="M 0 0 L 5 0 L 5 6 L 0 6 Z" fill="white" transform="matrix(1,0,0,1,5,10)"/><path d="M 0 0 L 6 0 L 6 6 L 0 6 Z" fill="#000000" transform="matrix(1,0,0,1,10,10)"/><path d="M 0 0 L 5 0 L 5 6 L 0 6 Z" fill="#000000" transform="matrix(1,0,0,1,16,10)"/><path d="M 0 0 L 5 0 L 5 6 L 0 6 Z" fill="#000000" transform="matrix(1,0,0,1,21,10)"/><path d="M 0 0 L 5 0 L 5 6 L 0 6 Z" fill="white" transform="matrix(1,0,0,1,26,10)"/><path d="M 0 0 L 5 0 L 5 6 L 0 6 Z" fill="#000000" transform="matrix(1,0,0,1,31,10)"/><path d="M 0 0 L 5 0 L 5 6 L 0 6 Z" fill="white" transform="matrix(1,0,0,1,36,10)"/><path d="M 0 0 L 6 0 L 6 6 L 0 6 Z" fill="#000000" transform="matrix(1,0,0,1,41,10)"/><path d="M 0 0 L 5 0 L 5 6 L 0 6 Z" fill="white" transform="matrix(1,0,0,1,47,10)"/><path d="M 0 0 L 5 0 L 5 6 L 0 6 Z" fill="white" transform="matrix(1,0,0,1,52,10)"/><path d="M 0 0 L 5 0 L 5 6 L 0 6 Z" fill="#000000" transform="matrix(1,0,0,1,57,10)"/><path d="M 0 0 L 5 0 L 5 6 L 0 6 Z" fill="#000000" transform="matrix(1,0,0,1,62,10)"/><path d="M 0 0 L 5 0 L 5 6 L 0 6 Z" fill="#000000" transform="matrix(1,0,0,1,67,10)"/><path d="M 0 0 L 6 0 L 6 6 L 0 6 Z" fill="white" transform="matrix(1,0,0,1,72,10)"/><path d="M 0 0 L 5 0 L 5 6 L 0 6 Z" fill="white" transform="matrix(1,0,0,1,78,10)"/><path d="M 0 0 L 5 0 L 5 6 L 0 6 Z" fill="#000000" transform="matrix(1,0,0,1,83,10)"/><path d="M 0 0 L 5 0 L 5 6 L 0 6 Z" fill="white" transform="matrix(1,0,0,1,88,10)"/><path d="M 0 0 L 5 0 L 5 6 L 0 6 Z" fill="#000000" transform="matrix(1,0,0,1,93,10)"/><path d="M 0 0 L 5 0 L 5 6 L 0 6 Z" fill="#000000" transform="matrix(1,0,0,1,98,10)"/><path d="M 0 0 L 6 0 L 6 6 L 0 6 Z" fill="#000000" transform="matrix(1,0,0,1,103,10)"/><path d="M 0 0 L 5 0 L 5 6 L 0 6 Z" fill="white" transform="matrix(1,0,0,1,109,10)"/><path d="M 0 0 L 5 0 L 5 6 L 0 6 Z" fill="#000000" transform="matrix(1,0,0,1,114,10)"/><path d="M 0 0 L 5 0 L 5 6 L 0 6 Z" fill="white" transform="matrix(1,0,0,1,119,10)"/><path d="M 0 0 L 5 0 L 5 6 L 0 6 Z" fill="#000000" transform="matrix(1,0,0,1,124,10)"/><path d="M 0 0 L 5 0 L 5 6 L 0 6 Z" fill="#000000" transform="matrix(1,0,0,1,129,10)"/><path d="M 0 0 L 6 0 L 6 6 L 0 6 Z" fill="#000000" transform="matrix(1,0,0,1,134,10)"/><path d="M 0 0 L 5 0 L 5 6 L 0 6 Z" fill="white" transform="matrix(1,0,0,1,140,10)"/><path d="M 0 0 L 5 0 L 5 6 L 0 6 Z" fill="#000000" transform="matrix(1,0,0,1,145,10)"/><path d="M 0 0 L 5 0 L 5 5 L 0 5 Z" fill="#000000" transform="matrix(1,0,0,1,0,16)"/><path d="M 0 0 L 5 0 L 5 5 L 0 5 Z" fill="white" transform="matrix(1,0,0,1,5,16)"/><path d="M 0 0 L 6 0 L 6 5 L 0 5 Z" fill="#000000" transform="matrix(1,0,0,1,10,16)"/><path d="M 0 0 L 5 0 L 5 5 L 0 5 Z" fill="#000000" transform="matrix(1,0,0,1,16,16)"/><path d="M 0 0 L 5 0 L 5 5 L 0 5 Z" fill="#000000" transform="matrix(1,0,0,1,21,16)"/><path d="M 0 0 L 5 0 L 5 5 L 0 5 Z" fill="white" transform="matrix(1,0,0,1,26,16)"/><path d="M 0 0 L 5 0 L 5 5 L 0 5 Z" fill="#000000" transform="matrix(1,0,0,1,31,16)"/><path d="M 0 0 L 5 0 L 5 5 L 0 5 Z" fill="white" transform="matrix(1,0,0,1,36,16)"/><path d="M 0 0 L 6 0 L 6 5 L 0 5 Z" fill="#000000" transform="matrix(1,0,0,1,41,16)"/><path d="M 0 0 L 5 0 L 5 5 L 0 5 Z" fill="#000000" transform="matrix(1,0,0,1,47,16)"/><path d="M 0 0 L 5 0 L 5 5 L 0 5 Z" fill="white" transform="matrix(1,0,0,1,52,16)"/><path d="M 0 0 L 5 0 L 5 5 L 0 5 Z" fill="#000000" transform="matrix(1,0,0,1,57,16)"/><path d="M 0 0 L 5 0 L 5 5 L 0 5 Z" fill="white" transform="matrix(1,0,0,1,62,16)"/><path d="M 0 0 L 5 0 L 5 5 L 0 5 Z" fill="white" transform="matrix(1,0,0,1,67,16)"/><path d="M 0 0 L 6 0 L 6 5 L 0 5 Z" fill="white" transform="matrix(1,0,0,1,72,16)"/><path d="M 0 0 L 5 0 L 5 5 L 0 5 Z" fill="white" transform="matrix(1,0,0,1,78,16)"/><path d="M 0 0 L 5 0 L 5 5 L 0 5 Z" fill="white" transform="matrix(1,0,0,1,83,16)"/><path d="M 0 0 L 5 0 L 5 5 L 0 5 Z" fill="#000000" transform="matrix(1,0,0,1,88,16)"/><path d="M 0 0 L 5 0 L 5 5 L 0 5 Z" fill="white" transform="matrix(1,0,0,1,93,16)"/><path d="M 0 0 L 5 0 L 5 5 L 0 5 Z" fill="#000000" transform="matrix(1,0,0,1,98,16)"/><path d="M 0 0 L 6 0 L 6 5 L 0 5 Z" fill="white" transform="matrix(1,0,0,1,103,16)"/><path d="M 0 0 L 5 0 L 5 5 L 0 5 Z" fill="white" transform="matrix(1,0,0,1,109,16)"/><path d="M 0 0 L 5 0 L 5 5 L 0 5 Z" fill="#000000" transform="matrix(1,0,0,1,114,16)"/><path d="M 0 0 L 5 0 L 5 5 L 0 5 Z" fill="white" transform="matrix(1,0,0,1,119,16)"/><path d="M 0 0 L 5 0 L 5 5 L 0 5 Z" fill="#000000" transform="matrix(1,0,0,1,124,16)"/><path d="M 0 0 L 5 0 L 5 5 L 0 5 Z" fill="#000000" transform="matrix(1,0,0,1,129,16)"/><path d="M 0 0 L 6 0 L 6 5 L 0 5 Z" fill="#000000" transform="matrix(1,0,0,1,134,16)"/><path d="M 0 0 L 5 0 L 5 5 L 0 5 Z" fill="white" transform="matrix(1,0,0,1,140,16)"/><path d="M 0 0 L 5 0 L 5 5 L 0 5 Z" fill="#000000" transform="matrix(1,0,0,1,145,16)"/><path d="M 0 0 L 5 0 L 5 5 L 0 5 Z" fill="#000000" transform="matrix(1,0,0,1,0,21)"/><path d="M 0 0 L 5 0 L 5 5 L 0 5 Z" fill="white" transform="matrix(1,0,0,1,5,21)"/><path d="M 0 0 L 6 0 L 6 5 L 0 5 Z" fill="#000000" transform="matrix(1,0,0,1,10,21)"/><path d="M 0 0 L 5 0 L 5 5 L 0 5 Z" fill="#000000" transform="matrix(1,0,0,1,16,21)"/><path d="M 0 0 L 5 0 L 5 5 L 0 5 Z" fill="#000000" transform="matrix(1,0,0,1,21,21)"/><path d="M 0 0 L 5 0 L 5 5 L 0 5 Z" fill="white" transform="matrix(1,0,0,1,26,21)"/><path d="M 0 0 L 5 0 L 5 5 L 0 5 Z" fill="#000000" transform="matrix(1,0,0,1,31,21)"/><path d="M 0 0 L 5 0 L 5 5 L 0 5 Z" fill="white" transform="matrix(1,0,0,1,36,21)"/><path d="M 0 0 L 6 0 L 6 5 L 0 5 Z" fill="#000000" transform="matrix(1,0,0,1,41,21)"/><path d="M 0 0 L 5 0 L 5 5 L 0 5 Z" fill="#000000" transform="matrix(1,0,0,1,47,21)"/><path d="M 0 0 L 5 0 L 5 5 L 0 5 Z" fill="#000000" transform="matrix(1,0,0,1,52,21)"/><path d="M 0 0 L 5 0 L 5 5 L 0 5 Z" fill="#000000" transform="matrix(1,0,0,1,57,21)"/><path d="M 0 0 L 5 0 L 5 5 L 0 5 Z" fill="white" transform="matrix(1,0,0,1,62,21)"/><path d="M 0 0 L 5 0 L 5 5 L 0 5 Z" fill="#000000" transform="matrix(1,0,0,1,67,21)"/><path d="M 0 0 L 6 0 L 6 5 L 0 5 Z" fill="#000000" transform="matrix(1,0,0,1,72,21)"/><path d="M 0 0 L 5 0 L 5 5 L 0 5 Z" fill="#000000" transform="matrix(1,0,0,1,78,21)"/><path d="M 0 0 L 5 0 L 5 5 L 0 5 Z" fill="#000000" transform="matrix(1,0,0,1,83,21)"/><path d="M 0 0 L 5 0 L 5 5 L 0 5 Z" fill="white" transform="matrix(1,0,0,1,88,21)"/><path d="M 0 0 L 5 0 L 5 5 L 0 5 Z" fill="white" transform="matrix(1,0,0,1,93,21)"/><path d="M 0 0 L 5 0 L 5 5 L 0 5 Z" fill="#000000" transform="matrix(1,0,0,1,98,21)"/><path d="M 0 0 L 6 0 L 6 5 L 0 5 Z" fill="white" transform="matrix(1,0,0,1,103,21)"/><path d="M 0 0 L 5 0 L 5 5 L 0 5 Z" fill="white" transform="matrix(1,0,0,1,109,21)"/><path d="M 0 0 L 5 0 L 5 5 L 0 5 Z" fill="#000000" transform="matrix(1,0,0,1,114,21)"/><path d="M 0 0 L 5 0 L 5 5 L 0 5 Z" fill="white" transform="matrix(1,0,0,1,119,21)"/><path d="M 0 0 L 5 0 L 5 5 L 0 5 Z" fill="#000000" transform="matrix(1,0,0,1,124,21)"/><path d="M 0 0 L 5 0 L 5 5 L 0 5 Z" fill="#000000" transform="matrix(1,0,0,1,129,21)"/><path d="M 0 0 L 6 0 L 6 5 L 0 5 Z" fill="#000000" transform="matrix(1,0,0,1,134,21)"/><path d="M 0 0 L 5 0 L 5 5 L 0 5 Z" fill="white" transform="matrix(1,0,0,1,140,21)"/><path d="M 0 0 L 5 0 L 5 5 L 0 5 Z" fill="#000000" transform="matrix(1,0,0,1,145,21)"/><path d="M 0 0 L 5 0 L 5 5 L 0 5 Z" fill="#000000" transform="matrix(1,0,0,1,0,26)"/><path d="M 0 0 L 5 0 L 5 5 L 0 5 Z" fill="white" transform="matrix(1,0,0,1,5,26)"/><path d="M 0 0 L 6 0 L 6 5 L 0 5 Z" fill="white" transform="matrix(1,0,0,1,10,26)"/><path d="M 0 0 L 5 0 L 5 5 L 0 5 Z" fill="white" transform="matrix(1,0,0,1,16,26)"/><path d="M 0 0 L 5 0 L 5 5 L 0 5 Z" fill="white" transform="matrix(1,0,0,1,21,26)"/><path d="M 0 0 L 5 0 L 5 5 L 0 5 Z" fill="white" transform="matrix(1,0,0,1,26,26)"/><path d="M 0 0 L 5 0 L 5 5 L 0 5 Z" fill="#000000" transform="matrix(1,0,0,1,31,26)"/><path d="M 0 0 L 5 0 L 5 5 L 0 5 Z" fill="white" transform="matrix(1,0,0,1,36,26)"/><path d="M 0 0 L 6 0 L 6 5 L 0 5 Z" fill="white" transform="matrix(1,0,0,1,41,26)"/><path d="M 0 0 L 5 0 L 5 5 L 0 5 Z" fill="#000000" transform="matrix(1,0,0,1,47,26)"/><path d="M 0 0 L 5 0 L 5 5 L 0 5 Z" fill="white" transform="matrix(1,0,0,1,52,26)"/><path d="M 0 0 L 5 0 L 5 5 L 0 5 Z" fill="white" transform="matrix(1,0,0,1,57,26)"/><path d="M 0 0 L 5 0 L 5 5 L 0 5 Z" fill="#000000" transform="matrix(1,0,0,1,62,26)"/><path d="M 0 0 L 5 0 L 5 5 L 0 5 Z" fill="white" transform="matrix(1,0,0,1,67,26)"/><path d="M 0 0 L 6 0 L 6 5 L 0 5 Z" fill="#000000" transform="matrix(1,0,0,1,72,26)"/><path d="M 0 0 L 5 0 L 5 5 L 0 5 Z" fill="white" transform="matrix(1,0,0,1,78,26)"/><path d="M 0 0 L 5 0 L 5 5 L 0 5 Z" fill="white" transform="matrix(1,0,0,1,83,26)"/><path d="M 0 0 L 5 0 L 5 5 L 0 5 Z" fill="#000000" transform="matrix(1,0,0,1,88,26)"/><path d="M 0 0 L 5 0 L 5 5 L 0 5 Z" fill="#000000" transform="matrix(1,0,0,1,93,26)"/><path d="M 0 0 L 5 0 L 5 5 L 0 5 Z" fill="#000000" transform="matrix(1,0,0,1,98,26)"/><path d="M 0 0 L 6 0 L 6 5 L 0 5 Z" fill="white" transform="matrix(1,0,0,1,103,26)"/><path d="M 0 0 L 5 0 L 5 5 L 0 5 Z" fill="white" transform="matrix(1,0,0,1,109,26)"/><path d="M 0 0 L 5 0 L 5 5 L 0 5 Z" fill="#000000" transform="matrix(1,0,0,1,114,26)"/><path d="M 0 0 L 5 0 L 5 5 L 0 5 Z" fill="white" transform="matrix(1,0,0,1,119,26)"/><path d="M 0 0 L 5 0 L 5 5 L 0 5 Z" fill="white" transform="matrix(1,0,0,1,124,26)"/><path d="M 0 0 L 5 0 L 5 5 L 0 5 Z" fill="white" transform="matrix(1,0,0,1,129,26)"/><path d="M 0 0 L 6 0 L 6 5 L 0 5 Z" fill="white" transform="matrix(1,0,0,1,134,26)"/><path d="M 0 0 L 5 0 L 5 5 L 0 5 Z" fill="white" transform="matrix(1,0,0,1,140,26)"/><path d="M 0 0 L 5 0 L 5 5 L 0 5 Z" fill="#000000" transform="matrix(1,0,0,1,145,26)"/><path d="M 0 0 L 5 0 L 5 5 L 0 5 Z" fill="#000000" transform="matrix(1,0,0,1,0,31)"/><path d="M 0 0 L 5 0 L 5 5 L 0 5 Z" fill="#000000" transform="matrix(1,0,0,1,5,31)"/><path d="M 0 0 L 6 0 L 6 5 L 0 5 Z" fill="#000000" transform="matrix(1,0,0,1,10,31)"/><path d="M 0 0 L 5 0 L 5 5 L 0 5 Z" fill="#000000" transform="matrix(1,0,0,1,16,31)"/><path d="M 0 0 L 5 0 L 5 5 L 0 5 Z" fill="#000000" transform="matrix(1,0,0,1,21,31)"/><path d="M 0 0 L 5 0 L 5 5 L 0 5 Z" fill="#000000" transform="matrix(1,0,0,1,26,31)"/><path d="M 0 0 L 5 0 L 5 5 L 0 5 Z" fill="#000000" transform="matrix(1,0,0,1,31,31)"/><path d="M 0 0 L 5 0 L 5 5 L 0 5 Z" fill="white" transform="matrix(1,0,0,1,36,31)"/><path d="M 0 0 L 6 0 L 6 5 L 0 5 Z" fill="#000000" transform="matrix(1,0,0,1,41,31)"/><path d="M 0 0 L 5 0 L 5 5 L 0 5 Z" fill="white" transform="matrix(1,0,0,1,47,31)"/><path d="M 0 0 L 5 0 L 5 5 L 0 5 Z" fill="#000000" transform="matrix(1,0,0,1,52,31)"/><path d="M 0 0 L 5 0 L 5 5 L 0 5 Z" fill="white" transform="matrix(1,0,0,1,57,31)"/><path d="M 0 0 L 5 0 L 5 5 L 0 5 Z" fill="#000000" transform="matrix(1,0,0,1,62,31)"/><path d="M 0 0 L 5 0 L 5 5 L 0 5 Z" fill="white" transform="matrix(1,0,0,1,67,31)"/><path d="M 0 0 L 6 0 L 6 5 L 0 5 Z" fill="#000000" transform="matrix(1,0,0,1,72,31)"/><path d="M 0 0 L 5 0 L 5 5 L 0 5 Z" fill="white" transform="matrix(1,0,0,1,78,31)"/><path d="M 0 0 L 5 0 L 5 5 L 0 5 Z" fill="#000000" transform="matrix(1,0,0,1,83,31)"/><path d="M 0 0 L 5 0 L 5 5 L 0 5 Z" fill="white" transform="matrix(1,0,0,1,88,31)"/><path d="M 0 0 L 5 0 L 5 5 L 0 5 Z" fill="#000000" transform="matrix(1,0,0,1,93,31)"/><path d="M 0 0 L 5 0 L 5 5 L 0 5 Z" fill="white" transform="matrix(1,0,0,1,98,31)"/><path d="M 0 0 L 6 0 L 6 5 L 0 5 Z" fill="#000000" transform="matrix(1,0,0,1,103,31)"/><path d="M 0 0 L 5 0 L 5 5 L 0 5 Z" fill="white" transform="matrix(1,0,0,1,109,31)"/><path d="M 0 0 L 5 0 L 5 5 L 0 5 Z" fill="#000000" transform="matrix(1,0,0,1,114,31)"/><path d="M 0 0 L 5 0 L 5 5 L 0 5 Z" fill="#000000" transform="matrix(1,0,0,1,119,31)"/><path d="M 0 0 L 5 0 L 5 5 L 0 5 Z" fill="#000000" transform="matrix(1,0,0,1,124,31)"/><path d="M 0 0 L 5 0 L 5 5 L 0 5 Z" fill="#000000" transform="matrix(1,0,0,1,129,31)"/><path d="M 0 0 L 6 0 L 6 5 L 0 5 Z" fill="#000000" transform="matrix(1,0,0,1,134,31)"/><path d="M 0 0 L 5 0 L 5 5 L 0 5 Z" fill="#000000" transform="matrix(1,0,0,1,140,31)"/><path d="M 0 0 L 5 0 L 5 5 L 0 5 Z" fill="#000000" transform="matrix(1,0,0,1,145,31)"/><path d="M 0 0 L 5 0 L 5 5 L 0 5 Z" fill="white" transform="matrix(1,0,0,1,0,36)"/><path d="M 0 0 L 5 0 L 5 5 L 0 5 Z" fill="white" transform="matrix(1,0,0,1,5,36)"/><path d="M 0 0 L 6 0 L 6 5 L 0 5 Z" fill="white" transform="matrix(1,0,0,1,10,36)"/><path d="M 0 0 L 5 0 L 5 5 L 0 5 Z" fill="white" transform="matrix(1,0,0,1,16,36)"/><path d="M 0 0 L 5 0 L 5 5 L 0 5 Z" fill="white" transform="matrix(1,0,0,1,21,36)"/><path d="M 0 0 L 5 0 L 5 5 L 0 5 Z" fill="white" transform="matrix(1,0,0,1,26,36)"/><path d="M 0 0 L 5 0 L 5 5 L 0 5 Z" fill="white" transform="matrix(1,0,0,1,31,36)"/><path d="M 0 0 L 5 0 L 5 5 L 0 5 Z" fill="white" transform="matrix(1,0,0,1,36,36)"/><path d="M 0 0 L 6 0 L 6 5 L 0 5 Z" fill="white" transform="matrix(1,0,0,1,41,36)"/><path d="M 0 0 L 5 0 L 5 5 L 0 5 Z" fill="#000000" transform="matrix(1,0,0,1,47,36)"/><path d="M 0 0 L 5 0 L 5 5 L 0 5 Z" fill="white" transform="matrix(1,0,0,1,52,36)"/><path d="M 0 0 L 5 0 L 5 5 L 0 5 Z" fill="#000000" transform="matrix(1,0,0,1,57,36)"/><path d="M 0 0 L 5 0 L 5 5 L 0 5 Z" fill="white" transform="matrix(1,0,0,1,62,36)"/><path d="M 0 0 L 5 0 L 5 5 L 0 5 Z" fill="#000000" transform="matrix(1,0,0,1,67,36)"/><path d="M 0 0 L 6 0 L 6 5 L 0 5 Z" fill="#000000" transform="matrix(1,0,0,1,72,36)"/><path d="M 0 0 L 5 0 L 5 5 L 0 5 Z" fill="white" transform="matrix(1,0,0,1,78,36)"/><path d="M 0 0 L 5 0 L 5 5 L 0 5 Z" fill="white" transform="matrix(1,0,0,1,83,36)"/><path d="M 0 0 L 5 0 L 5 5 L 0 5 Z" fill="#000000" transform="matrix(1,0,0,1,88,36)"/><path d="M 0 0 L 5 0 L 5 5 L 0 5 Z" fill="white" transform="matrix(1,0,0,1,93,36)"/><path d="M 0 0 L 5 0 L 5 5 L 0 5 Z" fill="#000000" transform="matrix(1,0,0,1,98,36)"/><path d="M 0 0 L 6 0 L 6 5 L 0 5 Z" fill="white" transform="matrix(1,0,0,1,103,36)"/><path d="M 0 0 L 5 0 L 5 5 L 0 5 Z" fill="white" transform="matrix(1,0,0,1,109,36)"/><path d="M 0 0 L 5 0 L 5 5 L 0 5 Z" fill="white" transform="matrix(1,0,0,1,114,36)"/><path d="M 0 0 L 5 0 L 5 5 L 0 5 Z" fill="white" transform="matrix(1,0,0,1,119,36)"/><path d="M 0 0 L 5 0 L 5 5 L 0 5 Z" fill="white" transform="matrix(1,0,0,1,124,36)"/><path d="M 0 0 L 5 0 L 5 5 L 0 5 Z" fill="white" transform="matrix(1,0,0,1,129,36)"/><path d="M 0 0 L 6 0 L 6 5 L 0 5 Z" fill="white" transform="matrix(1,0,0,1,134,36)"/><path d="M 0 0 L 5 0 L 5 5 L 0 5 Z" fill="white" transform="matrix(1,0,0,1,140,36)"/><path d="M 0 0 L 5 0 L 5 5 L 0 5 Z" fill="white" transform="matrix(1,0,0,1,145,36)"/><path d="M 0 0 L 5 0 L 5 6 L 0 6 Z" fill="#000000" transform="matrix(1,0,0,1,0,41)"/><path d="M 0 0 L 5 0 L 5 6 L 0 6 Z" fill="#000000" transform="matrix(1,0,0,1,5,41)"/><path d="M 0 0 L 6 0 L 6 6 L 0 6 Z" fill="#000000" transform="matrix(1,0,0,1,10,41)"/><path d="M 0 0 L 5 0 L 5 6 L 0 6 Z" fill="#000000" transform="matrix(1,0,0,1,16,41)"/><path d="M 0 0 L 5 0 L 5 6 L 0 6 Z" fill="white" transform="matrix(1,0,0,1,21,41)"/><path d="M 0 0 L 5 0 L 5 6 L 0 6 Z" fill="white" transform="matrix(1,0,0,1,26,41)"/><path d="M 0 0 L 5 0 L 5 6 L 0 6 Z" fill="#000000" transform="matrix(1,0,0,1,31,41)"/><path d="M 0 0 L 5 0 L 5 6 L 0 6 Z" fill="white" transform="matrix(1,0,0,1,36,41)"/><path d="M 0 0 L 6 0 L 6 6 L 0 6 Z" fill="#000000" transform="matrix(1,0,0,1,41,41)"/><path d="M 0 0 L 5 0 L 5 6 L 0 6 Z" fill="white" transform="matrix(1,0,0,1,47,41)"/><path d="M 0 0 L 5 0 L 5 6 L 0 6 Z" fill="white" transform="matrix(1,0,0,1,52,41)"/><path d="M 0 0 L 5 0 L 5 6 L 0 6 Z" fill="white" transform="matrix(1,0,0,1,57,41)"/><path d="M 0 0 L 5 0 L 5 6 L 0 6 Z" fill="white" transform="matrix(1,0,0,1,62,41)"/><path d="M 0 0 L 5 0 L 5 6 L 0 6 Z" fill="#000000" transform="matrix(1,0,0,1,67,41)"/><path d="M 0 0 L 6 0 L 6 6 L 0 6 Z" fill="#000000" transform="matrix(1,0,0,1,72,41)"/><path d="M 0 0 L 5 0 L 5 6 L 0 6 Z" fill="white" transform="matrix(1,0,0,1,78,41)"/><path d="M 0 0 L 5 0 L 5 6 L 0 6 Z" fill="white" transform="matrix(1,0,0,1,83,41)"/><path d="M 0 0 L 5 0 L 5 6 L 0 6 Z" fill="#000000" transform="matrix(1,0,0,1,88,41)"/><path d="M 0 0 L 5 0 L 5 6 L 0 6 Z" fill="#000000" transform="matrix(1,0,0,1,93,41)"/><path d="M 0 0 L 5 0 L 5 6 L 0 6 Z" fill="white" transform="matrix(1,0,0,1,98,41)"/><path d="M 0 0 L 6 0 L 6 6 L 0 6 Z" fill="white" transform="matrix(1,0,0,1,103,41)"/><path d="M 0 0 L 5 0 L 5 6 L 0 6 Z" fill="#000000" transform="matrix(1,0,0,1,109,41)"/><path d="M 0 0 L 5 0 L 5 6 L 0 6 Z" fill="white" transform="matrix(1,0,0,1,114,41)"/><path d="M 0 0 L 5 0 L 5 6 L 0 6 Z" fill="white" transform="matrix(1,0,0,1,119,41)"/><path d="M 0 0 L 5 0 L 5 6 L 0 6 Z" fill="#000000" transform="matrix(1,0,0,1,124,41)"/><path d="M 0 0 L 5 0 L 5 6 L 0 6 Z" fill="#000000" transform="matrix(1,0,0,1,129,41)"/><path d="M 0 0 L 6 0 L 6 6 L 0 6 Z" fill="#000000" transform="matrix(1,0,0,1,134,41)"/><path d="M 0 0 L 5 0 L 5 6 L 0 6 Z" fill="white" transform="matrix(1,0,0,1,140,41)"/><path d="M 0 0 L 5 0 L 5 6 L 0 6 Z" fill="#000000" transform="matrix(1,0,0,1,145,41)"/><path d="M 0 0 L 5 0 L 5 5 L 0 5 Z" fill="#000000" transform="matrix(1,0,0,1,0,47)"/><path d="M 0 0 L 5 0 L 5 5 L 0 5 Z" fill="#000000" transform="matrix(1,0,0,1,5,47)"/><path d="M 0 0 L 6 0 L 6 5 L 0 5 Z" fill="#000000" transform="matrix(1,0,0,1,10,47)"/><path d="M 0 0 L 5 0 L 5 5 L 0 5 Z" fill="#000000" transform="matrix(1,0,0,1,16,47)"/><path d="M 0 0 L 5 0 L 5 5 L 0 5 Z" fill="white" transform="matrix(1,0,0,1,21,47)"/><path d="M 0 0 L 5 0 L 5 5 L 0 5 Z" fill="#000000" transform="matrix(1,0,0,1,26,47)"/><path d="M 0 0 L 5 0 L 5 5 L 0 5 Z" fill="white" transform="matrix(1,0,0,1,31,47)"/><path d="M 0 0 L 5 0 L 5 5 L 0 5 Z" fill="#000000" transform="matrix(1,0,0,1,36,47)"/><path d="M 0 0 L 6 0 L 6 5 L 0 5 Z" fill="#000000" transform="matrix(1,0,0,1,41,47)"/><path d="M 0 0 L 5 0 L 5 5 L 0 5 Z" fill="#000000" transform="matrix(1,0,0,1,47,47)"/><path d="M 0 0 L 5 0 L 5 5 L 0 5 Z" fill="white" transform="matrix(1,0,0,1,52,47)"/><path d="M 0 0 L 5 0 L 5 5 L 0 5 Z" fill="white" transform="matrix(1,0,0,1,57,47)"/><path d="M 0 0 L 5 0 L 5 5 L 0 5 Z" fill="white" transform="matrix(1,0,0,1,62,47)"/><path d="M 0 0 L 5 0 L 5 5 L 0 5 Z" fill="white" transform="matrix(1,0,0,1,67,47)"/><path d="M 0 0 L 6 0 L 6 5 L 0 5 Z" fill="white" transform="matrix(1,0,0,1,72,47)"/><path d="M 0 0 L 5 0 L 5 5 L 0 5 Z" fill="white" transform="matrix(1,0,0,1,78,47)"/><path d="M 0 0 L 5 0 L 5 5 L 0 5 Z" fill="white" transform="matrix(1,0,0,1,83,47)"/><path d="M 0 0 L 5 0 L 5 5 L 0 5 Z" fill="#000000" transform="matrix(1,0,0,1,88,47)"/><path d="M 0 0 L 5 0 L 5 5 L 0 5 Z" fill="#000000" transform="matrix(1,0,0,1,93,47)"/><path d="M 0 0 L 5 0 L 5 5 L 0 5 Z" fill="#000000" transform="matrix(1,0,0,1,98,47)"/><path d="M 0 0 L 6 0 L 6 5 L 0 5 Z" fill="white" transform="matrix(1,0,0,1,103,47)"/><path d="M 0 0 L 5 0 L 5 5 L 0 5 Z" fill="#000000" transform="matrix(1,0,0,1,109,47)"/><path d="M 0 0 L 5 0 L 5 5 L 0 5 Z" fill="#000000" transform="matrix(1,0,0,1,114,47)"/><path d="M 0 0 L 5 0 L 5 5 L 0 5 Z" fill="#000000" transform="matrix(1,0,0,1,119,47)"/><path d="M 0 0 L 5 0 L 5 5 L 0 5 Z" fill="#000000" transform="matrix(1,0,0,1,124,47)"/><path d="M 0 0 L 5 0 L 5 5 L 0 5 Z" fill="white" transform="matrix(1,0,0,1,129,47)"/><path d="M 0 0 L 6 0 L 6 5 L 0 5 Z" fill="white" transform="matrix(1,0,0,1,134,47)"/><path d="M 0 0 L 5 0 L 5 5 L 0 5 Z" fill="white" transform="matrix(1,0,0,1,140,47)"/><path d="M 0 0 L 5 0 L 5 5 L 0 5 Z" fill="#000000" transform="matrix(1,0,0,1,145,47)"/><path d="M 0 0 L 5 0 L 5 5 L 0 5 Z" fill="#000000" transform="matrix(1,0,0,1,0,52)"/><path d="M 0 0 L 5 0 L 5 5 L 0 5 Z" fill="white" transform="matrix(1,0,0,1,5,52)"/><path d="M 0 0 L 6 0 L 6 5 L 0 5 Z" fill="#000000" transform="matrix(1,0,0,1,10,52)"/><path d="M 0 0 L 5 0 L 5 5 L 0 5 Z" fill="#000000" transform="matrix(1,0,0,1,16,52)"/><path d="M 0 0 L 5 0 L 5 5 L 0 5 Z" fill="#000000" transform="matrix(1,0,0,1,21,52)"/><path d="M 0 0 L 5 0 L 5 5 L 0 5 Z" fill="#000000" transform="matrix(1,0,0,1,26,52)"/><path d="M 0 0 L 5 0 L 5 5 L 0 5 Z" fill="#000000" transform="matrix(1,0,0,1,31,52)"/><path d="M 0 0 L 5 0 L 5 5 L 0 5 Z" fill="white" transform="matrix(1,0,0,1,36,52)"/><path d="M 0 0 L 6 0 L 6 5 L 0 5 Z" fill="#000000" transform="matrix(1,0,0,1,41,52)"/><path d="M 0 0 L 5 0 L 5 5 L 0 5 Z" fill="white" transform="matrix(1,0,0,1,47,52)"/><path d="M 0 0 L 5 0 L 5 5 L 0 5 Z" fill="white" transform="matrix(1,0,0,1,52,52)"/><path d="M 0 0 L 5 0 L 5 5 L 0 5 Z" fill="white" transform="matrix(1,0,0,1,57,52)"/><path d="M 0 0 L 5 0 L 5 5 L 0 5 Z" fill="white" transform="matrix(1,0,0,1,62,52)"/><path d="M 0 0 L 5 0 L 5 5 L 0 5 Z" fill="white" transform="matrix(1,0,0,1,67,52)"/><path d="M 0 0 L 6 0 L 6 5 L 0 5 Z" fill="#000000" transform="matrix(1,0,0,1,72,52)"/><path d="M 0 0 L 5 0 L 5 5 L 0 5 Z" fill="white" transform="matrix(1,0,0,1,78,52)"/><path d="M 0 0 L 5 0 L 5 5 L 0 5 Z" fill="#000000" transform="matrix(1,0,0,1,83,52)"/><path d="M 0 0 L 5 0 L 5 5 L 0 5 Z" fill="white" transform="matrix(1,0,0,1,88,52)"/><path d="M 0 0 L 5 0 L 5 5 L 0 5 Z" fill="white" transform="matrix(1,0,0,1,93,52)"/><path d="M 0 0 L 5 0 L 5 5 L 0 5 Z" fill="white" transform="matrix(1,0,0,1,98,52)"/><path d="M 0 0 L 6 0 L 6 5 L 0 5 Z" fill="#000000" transform="matrix(1,0,0,1,103,52)"/><path d="M 0 0 L 5 0 L 5 5 L 0 5 Z" fill="#000000" transform="matrix(1,0,0,1,109,52)"/><path d="M 0 0 L 5 0 L 5 5 L 0 5 Z" fill="#000000" transform="matrix(1,0,0,1,114,52)"/><path d="M 0 0 L 5 0 L 5 5 L 0 5 Z" fill="white" transform="matrix(1,0,0,1,119,52)"/><path d="M 0 0 L 5 0 L 5 5 L 0 5 Z" fill="#000000" transform="matrix(1,0,0,1,124,52)"/><path d="M 0 0 L 5 0 L 5 5 L 0 5 Z" fill="white" transform="matrix(1,0,0,1,129,52)"/><path d="M 0 0 L 6 0 L 6 5 L 0 5 Z" fill="#000000" transform="matrix(1,0,0,1,134,52)"/><path d="M 0 0 L 5 0 L 5 5 L 0 5 Z" fill="#000000" transform="matrix(1,0,0,1,140,52)"/><path d="M 0 0 L 5 0 L 5 5 L 0 5 Z" fill="white" transform="matrix(1,0,0,1,145,52)"/><path d="M 0 0 L 5 0 L 5 5 L 0 5 Z" fill="#000000" transform="matrix(1,0,0,1,0,57)"/><path d="M 0 0 L 5 0 L 5 5 L 0 5 Z" fill="white" transform="matrix(1,0,0,1,5,57)"/><path d="M 0 0 L 6 0 L 6 5 L 0 5 Z" fill="white" transform="matrix(1,0,0,1,10,57)"/><path d="M 0 0 L 5 0 L 5 5 L 0 5 Z" fill="white" transform="matrix(1,0,0,1,16,57)"/><path d="M 0 0 L 5 0 L 5 5 L 0 5 Z" fill="#000000" transform="matrix(1,0,0,1,21,57)"/><path d="M 0 0 L 5 0 L 5 5 L 0 5 Z" fill="#000000" transform="matrix(1,0,0,1,26,57)"/><path d="M 0 0 L 5 0 L 5 5 L 0 5 Z" fill="white" transform="matrix(1,0,0,1,31,57)"/><path d="M 0 0 L 5 0 L 5 5 L 0 5 Z" fill="white" transform="matrix(1,0,0,1,36,57)"/><path d="M 0 0 L 6 0 L 6 5 L 0 5 Z" fill="#000000" transform="matrix(1,0,0,1,41,57)"/><path d="M 0 0 L 5 0 L 5 5 L 0 5 Z" fill="white" transform="matrix(1,0,0,1,47,57)"/><path d="M 0 0 L 5 0 L 5 5 L 0 5 Z" fill="white" transform="matrix(1,0,0,1,52,57)"/><path d="M 0 0 L 5 0 L 5 5 L 0 5 Z" fill="#000000" transform="matrix(1,0,0,1,57,57)"/><path d="M 0 0 L 5 0 L 5 5 L 0 5 Z" fill="#000000" transform="matrix(1,0,0,1,62,57)"/><path d="M 0 0 L 5 0 L 5 5 L 0 5 Z" fill="#000000" transform="matrix(1,0,0,1,67,57)"/><path d="M 0 0 L 6 0 L 6 5 L 0 5 Z" fill="#000000" transform="matrix(1,0,0,1,72,57)"/><path d="M 0 0 L 5 0 L 5 5 L 0 5 Z" fill="white" transform="matrix(1,0,0,1,78,57)"/><path d="M 0 0 L 5 0 L 5 5 L 0 5 Z" fill="white" transform="matrix(1,0,0,1,83,57)"/><path d="M 0 0 L 5 0 L 5 5 L 0 5 Z" fill="white" transform="matrix(1,0,0,1,88,57)"/><path d="M 0 0 L 5 0 L 5 5 L 0 5 Z" fill="#000000" transform="matrix(1,0,0,1,93,57)"/><path d="M 0 0 L 5 0 L 5 5 L 0 5 Z" fill="#000000" transform="matrix(1,0,0,1,98,57)"/><path d="M 0 0 L 6 0 L 6 5 L 0 5 Z" fill="white" transform="matrix(1,0,0,1,103,57)"/><path d="M 0 0 L 5 0 L 5 5 L 0 5 Z" fill="white" transform="matrix(1,0,0,1,109,57)"/><path d="M 0 0 L 5 0 L 5 5 L 0 5 Z" fill="white" transform="matrix(1,0,0,1,114,57)"/><path d="M 0 0 L 5 0 L 5 5 L 0 5 Z" fill="#000000" transform="matrix(1,0,0,1,119,57)"/><path d="M 0 0 L 5 0 L 5 5 L 0 5 Z" fill="#000000" transform="matrix(1,0,0,1,124,57)"/><path d="M 0 0 L 5 0 L 5 5 L 0 5 Z" fill="white" transform="matrix(1,0,0,1,129,57)"/><path d="M 0 0 L 6 0 L 6 5 L 0 5 Z" fill="white" transform="matrix(1,0,0,1,134,57)"/><path d="M 0 0 L 5 0 L 5 5 L 0 5 Z" fill="white" transform="matrix(1,0,0,1,140,57)"/><path d="M 0 0 L 5 0 L 5 5 L 0 5 Z" fill="#000000" transform="matrix(1,0,0,1,145,57)"/><path d="M 0 0 L 5 0 L 5 5 L 0 5 Z" fill="white" transform="matrix(1,0,0,1,0,62)"/><path d="M 0 0 L 5 0 L 5 5 L 0 5 Z" fill="white" transform="matrix(1,0,0,1,5,62)"/><path d="M 0 0 L 6 0 L 6 5 L 0 5 Z" fill="#000000" transform="matrix(1,0,0,1,10,62)"/><path d="M 0 0 L 5 0 L 5 5 L 0 5 Z" fill="#000000" transform="matrix(1,0,0,1,16,62)"/><path d="M 0 0 L 5 0 L 5 5 L 0 5 Z" fill="white" transform="matrix(1,0,0,1,21,62)"/><path d="M 0 0 L 5 0 L 5 5 L 0 5 Z" fill="white" transform="matrix(1,0,0,1,26,62)"/><path d="M 0 0 L 5 0 L 5 5 L 0 5 Z" fill="#000000" transform="matrix(1,0,0,1,31,62)"/><path d="M 0 0 L 5 0 L 5 5 L 0 5 Z" fill="white" transform="matrix(1,0,0,1,36,62)"/><path d="M 0 0 L 6 0 L 6 5 L 0 5 Z" fill="#000000" transform="matrix(1,0,0,1,41,62)"/><path d="M 0 0 L 5 0 L 5 5 L 0 5 Z" fill="#000000" transform="matrix(1,0,0,1,47,62)"/><path d="M 0 0 L 5 0 L 5 5 L 0 5 Z" fill="white" transform="matrix(1,0,0,1,52,62)"/><path d="M 0 0 L 5 0 L 5 5 L 0 5 Z" fill="#000000" transform="matrix(1,0,0,1,57,62)"/><path d="M 0 0 L 5 0 L 5 5 L 0 5 Z" fill="white" transform="matrix(1,0,0,1,62,62)"/><path d="M 0 0 L 5 0 L 5 5 L 0 5 Z" fill="white" transform="matrix(1,0,0,1,67,62)"/><path d="M 0 0 L 6 0 L 6 5 L 0 5 Z" fill="white" transform="matrix(1,0,0,1,72,62)"/><path d="M 0 0 L 5 0 L 5 5 L 0 5 Z" fill="#000000" transform="matrix(1,0,0,1,78,62)"/><path d="M 0 0 L 5 0 L 5 5 L 0 5 Z" fill="white" transform="matrix(1,0,0,1,83,62)"/><path d="M 0 0 L 5 0 L 5 5 L 0 5 Z" fill="#000000" transform="matrix(1,0,0,1,88,62)"/><path d="M 0 0 L 5 0 L 5 5 L 0 5 Z" fill="#000000" transform="matrix(1,0,0,1,93,62)"/><path d="M 0 0 L 5 0 L 5 5 L 0 5 Z" fill="white" transform="matrix(1,0,0,1,98,62)"/><path d="M 0 0 L 6 0 L 6 5 L 0 5 Z" fill="#000000" transform="matrix(1,0,0,1,103,62)"/><path d="M 0 0 L 5 0 L 5 5 L 0 5 Z" fill="white" transform="matrix(1,0,0,1,109,62)"/><path d="M 0 0 L 5 0 L 5 5 L 0 5 Z" fill="white" transform="matrix(1,0,0,1,114,62)"/><path d="M 0 0 L 5 0 L 5 5 L 0 5 Z" fill="white" transform="matrix(1,0,0,1,119,62)"/><path d="M 0 0 L 5 0 L 5 5 L 0 5 Z" fill="white" transform="matrix(1,0,0,1,124,62)"/><path d="M 0 0 L 5 0 L 5 5 L 0 5 Z" fill="#000000" transform="matrix(1,0,0,1,129,62)"/><path d="M 0 0 L 6 0 L 6 5 L 0 5 Z" fill="#000000" transform="matrix(1,0,0,1,134,62)"/><path d="M 0 0 L 5 0 L 5 5 L 0 5 Z" fill="white" transform="matrix(1,0,0,1,140,62)"/><path d="M 0 0 L 5 0 L 5 5 L 0 5 Z" fill="white" transform="matrix(1,0,0,1,145,62)"/><path d="M 0 0 L 5 0 L 5 5 L 0 5 Z" fill="white" transform="matrix(1,0,0,1,0,67)"/><path d="M 0 0 L 5 0 L 5 5 L 0 5 Z" fill="white" transform="matrix(1,0,0,1,5,67)"/><path d="M 0 0 L 6 0 L 6 5 L 0 5 Z" fill="#000000" transform="matrix(1,0,0,1,10,67)"/><path d="M 0 0 L 5 0 L 5 5 L 0 5 Z" fill="white" transform="matrix(1,0,0,1,16,67)"/><path d="M 0 0 L 5 0 L 5 5 L 0 5 Z" fill="white" transform="matrix(1,0,0,1,21,67)"/><path d="M 0 0 L 5 0 L 5 5 L 0 5 Z" fill="#000000" transform="matrix(1,0,0,1,26,67)"/><path d="M 0 0 L 5 0 L 5 5 L 0 5 Z" fill="white" transform="matrix(1,0,0,1,31,67)"/><path d="M 0 0 L 5 0 L 5 5 L 0 5 Z" fill="#000000" transform="matrix(1,0,0,1,36,67)"/><path d="M 0 0 L 6 0 L 6 5 L 0 5 Z" fill="white" transform="matrix(1,0,0,1,41,67)"/><path d="M 0 0 L 5 0 L 5 5 L 0 5 Z" fill="#000000" transform="matrix(1,0,0,1,47,67)"/><path d="M 0 0 L 5 0 L 5 5 L 0 5 Z" fill="#000000" transform="matrix(1,0,0,1,52,67)"/><path d="M 0 0 L 5 0 L 5 5 L 0 5 Z" fill="#000000" transform="matrix(1,0,0,1,57,67)"/><path d="M 0 0 L 5 0 L 5 5 L 0 5 Z" fill="white" transform="matrix(1,0,0,1,62,67)"/><path d="M 0 0 L 5 0 L 5 5 L 0 5 Z" fill="#000000" transform="matrix(1,0,0,1,67,67)"/><path d="M 0 0 L 6 0 L 6 5 L 0 5 Z" fill="white" transform="matrix(1,0,0,1,72,67)"/><path d="M 0 0 L 5 0 L 5 5 L 0 5 Z" fill="#000000" transform="matrix(1,0,0,1,78,67)"/><path d="M 0 0 L 5 0 L 5 5 L 0 5 Z" fill="#000000" transform="matrix(1,0,0,1,83,67)"/><path d="M 0 0 L 5 0 L 5 5 L 0 5 Z" fill="white" transform="matrix(1,0,0,1,88,67)"/><path d="M 0 0 L 5 0 L 5 5 L 0 5 Z" fill="white" transform="matrix(1,0,0,1,93,67)"/><path d="M 0 0 L 5 0 L 5 5 L 0 5 Z" fill="#000000" transform="matrix(1,0,0,1,98,67)"/><path d="M 0 0 L 6 0 L 6 5 L 0 5 Z" fill="white" transform="matrix(1,0,0,1,103,67)"/><path d="M 0 0 L 5 0 L 5 5 L 0 5 Z" fill="white" transform="matrix(1,0,0,1,109,67)"/><path d="M 0 0 L 5 0 L 5 5 L 0 5 Z" fill="#000000" transform="matrix(1,0,0,1,114,67)"/><path d="M 0 0 L 5 0 L 5 5 L 0 5 Z" fill="white" transform="matrix(1,0,0,1,119,67)"/><path d="M 0 0 L 5 0 L 5 5 L 0 5 Z" fill="white" transform="matrix(1,0,0,1,124,67)"/><path d="M 0 0 L 5 0 L 5 5 L 0 5 Z" fill="white" transform="matrix(1,0,0,1,129,67)"/><path d="M 0 0 L 6 0 L 6 5 L 0 5 Z" fill="#000000" transform="matrix(1,0,0,1,134,67)"/><path d="M 0 0 L 5 0 L 5 5 L 0 5 Z" fill="#000000" transform="matrix(1,0,0,1,140,67)"/><path d="M 0 0 L 5 0 L 5 5 L 0 5 Z" fill="#000000" transform="matrix(1,0,0,1,145,67)"/><path d="M 0 0 L 5 0 L 5 6 L 0 6 Z" fill="white" transform="matrix(1,0,0,1,0,72)"/><path d="M 0 0 L 5 0 L 5 6 L 0 6 Z" fill="#000000" transform="matrix(1,0,0,1,5,72)"/><path d="M 0 0 L 6 0 L 6 6 L 0 6 Z" fill="#000000" transform="matrix(1,0,0,1,10,72)"/><path d="M 0 0 L 5 0 L 5 6 L 0 6 Z" fill="white" transform="matrix(1,0,0,1,16,72)"/><path d="M 0 0 L 5 0 L 5 6 L 0 6 Z" fill="white" transform="matrix(1,0,0,1,21,72)"/><path d="M 0 0 L 5 0 L 5 6 L 0 6 Z" fill="#000000" transform="matrix(1,0,0,1,26,72)"/><path d="M 0 0 L 5 0 L 5 6 L 0 6 Z" fill="#000000" transform="matrix(1,0,0,1,31,72)"/><path d="M 0 0 L 5 0 L 5 6 L 0 6 Z" fill="white" transform="matrix(1,0,0,1,36,72)"/><path d="M 0 0 L 6 0 L 6 6 L 0 6 Z" fill="#000000" transform="matrix(1,0,0,1,41,72)"/><path d="M 0 0 L 5 0 L 5 6 L 0 6 Z" fill="#000000" transform="matrix(1,0,0,1,47,72)"/><path d="M 0 0 L 5 0 L 5 6 L 0 6 Z" fill="white" transform="matrix(1,0,0,1,52,72)"/><path d="M 0 0 L 5 0 L 5 6 L 0 6 Z" fill="white" transform="matrix(1,0,0,1,57,72)"/><path d="M 0 0 L 5 0 L 5 6 L 0 6 Z" fill="#000000" transform="matrix(1,0,0,1,62,72)"/><path d="M 0 0 L 5 0 L 5 6 L 0 6 Z" fill="white" transform="matrix(1,0,0,1,67,72)"/><path d="M 0 0 L 6 0 L 6 6 L 0 6 Z" fill="#000000" transform="matrix(1,0,0,1,72,72)"/><path d="M 0 0 L 5 0 L 5 6 L 0 6 Z" fill="white" transform="matrix(1,0,0,1,78,72)"/><path d="M 0 0 L 5 0 L 5 6 L 0 6 Z" fill="#000000" transform="matrix(1,0,0,1,83,72)"/><path d="M 0 0 L 5 0 L 5 6 L 0 6 Z" fill="#000000" transform="matrix(1,0,0,1,88,72)"/><path d="M 0 0 L 5 0 L 5 6 L 0 6 Z" fill="#000000" transform="matrix(1,0,0,1,93,72)"/><path d="M 0 0 L 5 0 L 5 6 L 0 6 Z" fill="#000000" transform="matrix(1,0,0,1,98,72)"/><path d="M 0 0 L 6 0 L 6 6 L 0 6 Z" fill="white" transform="matrix(1,0,0,1,103,72)"/><path d="M 0 0 L 5 0 L 5 6 L 0 6 Z" fill="#000000" transform="matrix(1,0,0,1,109,72)"/><path d="M 0 0 L 5 0 L 5 6 L 0 6 Z" fill="#000000" transform="matrix(1,0,0,1,114,72)"/><path d="M 0 0 L 5 0 L 5 6 L 0 6 Z" fill="#000000" transform="matrix(1,0,0,1,119,72)"/><path d="M 0 0 L 5 0 L 5 6 L 0 6 Z" fill="white" transform="matrix(1,0,0,1,124,72)"/><path d="M 0 0 L 5 0 L 5 6 L 0 6 Z" fill="white" transform="matrix(1,0,0,1,129,72)"/><path d="M 0 0 L 6 0 L 6 6 L 0 6 Z" fill="#000000" transform="matrix(1,0,0,1,134,72)"/><path d="M 0 0 L 5 0 L 5 6 L 0 6 Z" fill="#000000" transform="matrix(1,0,0,1,140,72)"/><path d="M 0 0 L 5 0 L 5 6 L 0 6 Z" fill="#000000" transform="matrix(1,0,0,1,145,72)"/><path d="M 0 0 L 5 0 L 5 5 L 0 5 Z" fill="#000000" transform="matrix(1,0,0,1,0,78)"/><path d="M 0 0 L 5 0 L 5 5 L 0 5 Z" fill="#000000" transform="matrix(1,0,0,1,5,78)"/><path d="M 0 0 L 6 0 L 6 5 L 0 5 Z" fill="white" transform="matrix(1,0,0,1,10,78)"/><path d="M 0 0 L 5 0 L 5 5 L 0 5 Z" fill="#000000" transform="matrix(1,0,0,1,16,78)"/><path d="M 0 0 L 5 0 L 5 5 L 0 5 Z" fill="#000000" transform="matrix(1,0,0,1,21,78)"/><path d="M 0 0 L 5 0 L 5 5 L 0 5 Z" fill="#000000" transform="matrix(1,0,0,1,26,78)"/><path d="M 0 0 L 5 0 L 5 5 L 0 5 Z" fill="white" transform="matrix(1,0,0,1,31,78)"/><path d="M 0 0 L 5 0 L 5 5 L 0 5 Z" fill="#000000" transform="matrix(1,0,0,1,36,78)"/><path d="M 0 0 L 6 0 L 6 5 L 0 5 Z" fill="white" transform="matrix(1,0,0,1,41,78)"/><path d="M 0 0 L 5 0 L 5 5 L 0 5 Z" fill="white" transform="matrix(1,0,0,1,47,78)"/><path d="M 0 0 L 5 0 L 5 5 L 0 5 Z" fill="#000000" transform="matrix(1,0,0,1,52,78)"/><path d="M 0 0 L 5 0 L 5 5 L 0 5 Z" fill="white" transform="matrix(1,0,0,1,57,78)"/><path d="M 0 0 L 5 0 L 5 5 L 0 5 Z" fill="#000000" transform="matrix(1,0,0,1,62,78)"/><path d="M 0 0 L 5 0 L 5 5 L 0 5 Z" fill="#000000" transform="matrix(1,0,0,1,67,78)"/><path d="M 0 0 L 6 0 L 6 5 L 0 5 Z" fill="white" transform="matrix(1,0,0,1,72,78)"/><path d="M 0 0 L 5 0 L 5 5 L 0 5 Z" fill="white" transform="matrix(1,0,0,1,78,78)"/><path d="M 0 0 L 5 0 L 5 5 L 0 5 Z" fill="white" transform="matrix(1,0,0,1,83,78)"/><path d="M 0 0 L 5 0 L 5 5 L 0 5 Z" fill="white" transform="matrix(1,0,0,1,88,78)"/><path d="M 0 0 L 5 0 L 5 5 L 0 5 Z" fill="white" transform="matrix(1,0,0,1,93,78)"/><path d="M 0 0 L 5 0 L 5 5 L 0 5 Z" fill="white" transform="matrix(1,0,0,1,98,78)"/><path d="M 0 0 L 6 0 L 6 5 L 0 5 Z" fill="white" transform="matrix(1,0,0,1,103,78)"/><path d="M 0 0 L 5 0 L 5 5 L 0 5 Z" fill="white" transform="matrix(1,0,0,1,109,78)"/><path d="M 0 0 L 5 0 L 5 5 L 0 5 Z" fill="white" transform="matrix(1,0,0,1,114,78)"/><path d="M 0 0 L 5 0 L 5 5 L 0 5 Z" fill="white" transform="matrix(1,0,0,1,119,78)"/><path d="M 0 0 L 5 0 L 5 5 L 0 5 Z" fill="white" transform="matrix(1,0,0,1,124,78)"/><path d="M 0 0 L 5 0 L 5 5 L 0 5 Z" fill="white" transform="matrix(1,0,0,1,129,78)"/><path d="M 0 0 L 6 0 L 6 5 L 0 5 Z" fill="white" transform="matrix(1,0,0,1,134,78)"/><path d="M 0 0 L 5 0 L 5 5 L 0 5 Z" fill="#000000" transform="matrix(1,0,0,1,140,78)"/><path d="M 0 0 L 5 0 L 5 5 L 0 5 Z" fill="white" transform="matrix(1,0,0,1,145,78)"/><path d="M 0 0 L 5 0 L 5 5 L 0 5 Z" fill="#000000" transform="matrix(1,0,0,1,0,83)"/><path d="M 0 0 L 5 0 L 5 5 L 0 5 Z" fill="#000000" transform="matrix(1,0,0,1,5,83)"/><path d="M 0 0 L 6 0 L 6 5 L 0 5 Z" fill="#000000" transform="matrix(1,0,0,1,10,83)"/><path d="M 0 0 L 5 0 L 5 5 L 0 5 Z" fill="#000000" transform="matrix(1,0,0,1,16,83)"/><path d="M 0 0 L 5 0 L 5 5 L 0 5 Z" fill="white" transform="matrix(1,0,0,1,21,83)"/><path d="M 0 0 L 5 0 L 5 5 L 0 5 Z" fill="#000000" transform="matrix(1,0,0,1,26,83)"/><path d="M 0 0 L 5 0 L 5 5 L 0 5 Z" fill="#000000" transform="matrix(1,0,0,1,31,83)"/><path d="M 0 0 L 5 0 L 5 5 L 0 5 Z" fill="white" transform="matrix(1,0,0,1,36,83)"/><path d="M 0 0 L 6 0 L 6 5 L 0 5 Z" fill="#000000" transform="matrix(1,0,0,1,41,83)"/><path d="M 0 0 L 5 0 L 5 5 L 0 5 Z" fill="white" transform="matrix(1,0,0,1,47,83)"/><path d="M 0 0 L 5 0 L 5 5 L 0 5 Z" fill="white" transform="matrix(1,0,0,1,52,83)"/><path d="M 0 0 L 5 0 L 5 5 L 0 5 Z" fill="#000000" transform="matrix(1,0,0,1,57,83)"/><path d="M 0 0 L 5 0 L 5 5 L 0 5 Z" fill="white" transform="matrix(1,0,0,1,62,83)"/><path d="M 0 0 L 5 0 L 5 5 L 0 5 Z" fill="white" transform="matrix(1,0,0,1,67,83)"/><path d="M 0 0 L 6 0 L 6 5 L 0 5 Z" fill="white" transform="matrix(1,0,0,1,72,83)"/><path d="M 0 0 L 5 0 L 5 5 L 0 5 Z" fill="#000000" transform="matrix(1,0,0,1,78,83)"/><path d="M 0 0 L 5 0 L 5 5 L 0 5 Z" fill="#000000" transform="matrix(1,0,0,1,83,83)"/><path d="M 0 0 L 5 0 L 5 5 L 0 5 Z" fill="white" transform="matrix(1,0,0,1,88,83)"/><path d="M 0 0 L 5 0 L 5 5 L 0 5 Z" fill="white" transform="matrix(1,0,0,1,93,83)"/><path d="M 0 0 L 5 0 L 5 5 L 0 5 Z" fill="white" transform="matrix(1,0,0,1,98,83)"/><path d="M 0 0 L 6 0 L 6 5 L 0 5 Z" fill="white" transform="matrix(1,0,0,1,103,83)"/><path d="M 0 0 L 5 0 L 5 5 L 0 5 Z" fill="#000000" transform="matrix(1,0,0,1,109,83)"/><path d="M 0 0 L 5 0 L 5 5 L 0 5 Z" fill="white" transform="matrix(1,0,0,1,114,83)"/><path d="M 0 0 L 5 0 L 5 5 L 0 5 Z" fill="white" transform="matrix(1,0,0,1,119,83)"/><path d="M 0 0 L 5 0 L 5 5 L 0 5 Z" fill="#000000" transform="matrix(1,0,0,1,124,83)"/><path d="M 0 0 L 5 0 L 5 5 L 0 5 Z" fill="#000000" transform="matrix(1,0,0,1,129,83)"/><path d="M 0 0 L 6 0 L 6 5 L 0 5 Z" fill="white" transform="matrix(1,0,0,1,134,83)"/><path d="M 0 0 L 5 0 L 5 5 L 0 5 Z" fill="#000000" transform="matrix(1,0,0,1,140,83)"/><path d="M 0 0 L 5 0 L 5 5 L 0 5 Z" fill="white" transform="matrix(1,0,0,1,145,83)"/><path d="M 0 0 L 5 0 L 5 5 L 0 5 Z" fill="white" transform="matrix(1,0,0,1,0,88)"/><path d="M 0 0 L 5 0 L 5 5 L 0 5 Z" fill="#000000" transform="matrix(1,0,0,1,5,88)"/><path d="M 0 0 L 6 0 L 6 5 L 0 5 Z" fill="white" transform="matrix(1,0,0,1,10,88)"/><path d="M 0 0 L 5 0 L 5 5 L 0 5 Z" fill="white" transform="matrix(1,0,0,1,16,88)"/><path d="M 0 0 L 5 0 L 5 5 L 0 5 Z" fill="white" transform="matrix(1,0,0,1,21,88)"/><path d="M 0 0 L 5 0 L 5 5 L 0 5 Z" fill="#000000" transform="matrix(1,0,0,1,26,88)"/><path d="M 0 0 L 5 0 L 5 5 L 0 5 Z" fill="white" transform="matrix(1,0,0,1,31,88)"/><path d="M 0 0 L 5 0 L 5 5 L 0 5 Z" fill="white" transform="matrix(1,0,0,1,36,88)"/><path d="M 0 0 L 6 0 L 6 5 L 0 5 Z" fill="white" transform="matrix(1,0,0,1,41,88)"/><path d="M 0 0 L 5 0 L 5 5 L 0 5 Z" fill="#000000" transform="matrix(1,0,0,1,47,88)"/><path d="M 0 0 L 5 0 L 5 5 L 0 5 Z" fill="white" transform="matrix(1,0,0,1,52,88)"/><path d="M 0 0 L 5 0 L 5 5 L 0 5 Z" fill="white" transform="matrix(1,0,0,1,57,88)"/><path d="M 0 0 L 5 0 L 5 5 L 0 5 Z" fill="#000000" transform="matrix(1,0,0,1,62,88)"/><path d="M 0 0 L 5 0 L 5 5 L 0 5 Z" fill="#000000" transform="matrix(1,0,0,1,67,88)"/><path d="M 0 0 L 6 0 L 6 5 L 0 5 Z" fill="white" transform="matrix(1,0,0,1,72,88)"/><path d="M 0 0 L 5 0 L 5 5 L 0 5 Z" fill="white" transform="matrix(1,0,0,1,78,88)"/><path d="M 0 0 L 5 0 L 5 5 L 0 5 Z" fill="white" transform="matrix(1,0,0,1,83,88)"/><path d="M 0 0 L 5 0 L 5 5 L 0 5 Z" fill="white" transform="matrix(1,0,0,1,88,88)"/><path d="M 0 0 L 5 0 L 5 5 L 0 5 Z" fill="#000000" transform="matrix(1,0,0,1,93,88)"/><path d="M 0 0 L 5 0 L 5 5 L 0 5 Z" fill="white" transform="matrix(1,0,0,1,98,88)"/><path d="M 0 0 L 6 0 L 6 5 L 0 5 Z" fill="#000000" transform="matrix(1,0,0,1,103,88)"/><path d="M 0 0 L 5 0 L 5 5 L 0 5 Z" fill="white" transform="matrix(1,0,0,1,109,88)"/><path d="M 0 0 L 5 0 L 5 5 L 0 5 Z" fill="white" transform="matrix(1,0,0,1,114,88)"/><path d="M 0 0 L 5 0 L 5 5 L 0 5 Z" fill="#000000" transform="matrix(1,0,0,1,119,88)"/><path d="M 0 0 L 5 0 L 5 5 L 0 5 Z" fill="white" transform="matrix(1,0,0,1,124,88)"/><path d="M 0 0 L 5 0 L 5 5 L 0 5 Z" fill="#000000" transform="matrix(1,0,0,1,129,88)"/><path d="M 0 0 L 6 0 L 6 5 L 0 5 Z" fill="#000000" transform="matrix(1,0,0,1,134,88)"/><path d="M 0 0 L 5 0 L 5 5 L 0 5 Z" fill="#000000" transform="matrix(1,0,0,1,140,88)"/><path d="M 0 0 L 5 0 L 5 5 L 0 5 Z" fill="white" transform="matrix(1,0,0,1,145,88)"/><path d="M 0 0 L 5 0 L 5 5 L 0 5 Z" fill="#000000" transform="matrix(1,0,0,1,0,93)"/><path d="M 0 0 L 5 0 L 5 5 L 0 5 Z" fill="white" transform="matrix(1,0,0,1,5,93)"/><path d="M 0 0 L 6 0 L 6 5 L 0 5 Z" fill="white" transform="matrix(1,0,0,1,10,93)"/><path d="M 0 0 L 5 0 L 5 5 L 0 5 Z" fill="#000000" transform="matrix(1,0,0,1,16,93)"/><path d="M 0 0 L 5 0 L 5 5 L 0 5 Z" fill="#000000" transform="matrix(1,0,0,1,21,93)"/><path d="M 0 0 L 5 0 L 5 5 L 0 5 Z" fill="#000000" transform="matrix(1,0,0,1,26,93)"/><path d="M 0 0 L 5 0 L 5 5 L 0 5 Z" fill="#000000" transform="matrix(1,0,0,1,31,93)"/><path d="M 0 0 L 5 0 L 5 5 L 0 5 Z" fill="#000000" transform="matrix(1,0,0,1,36,93)"/><path d="M 0 0 L 6 0 L 6 5 L 0 5 Z" fill="#000000" transform="matrix(1,0,0,1,41,93)"/><path d="M 0 0 L 5 0 L 5 5 L 0 5 Z" fill="#000000" transform="matrix(1,0,0,1,47,93)"/><path d="M 0 0 L 5 0 L 5 5 L 0 5 Z" fill="white" transform="matrix(1,0,0,1,52,93)"/><path d="M 0 0 L 5 0 L 5 5 L 0 5 Z" fill="#000000" transform="matrix(1,0,0,1,57,93)"/><path d="M 0 0 L 5 0 L 5 5 L 0 5 Z" fill="#000000" transform="matrix(1,0,0,1,62,93)"/><path d="M 0 0 L 5 0 L 5 5 L 0 5 Z" fill="white" transform="matrix(1,0,0,1,67,93)"/><path d="M 0 0 L 6 0 L 6 5 L 0 5 Z" fill="white" transform="matrix(1,0,0,1,72,93)"/><path d="M 0 0 L 5 0 L 5 5 L 0 5 Z" fill="#000000" transform="matrix(1,0,0,1,78,93)"/><path d="M 0 0 L 5 0 L 5 5 L 0 5 Z" fill="white" transform="matrix(1,0,0,1,83,93)"/><path d="M 0 0 L 5 0 L 5 5 L 0 5 Z" fill="#000000" transform="matrix(1,0,0,1,88,93)"/><path d="M 0 0 L 5 0 L 5 5 L 0 5 Z" fill="#000000" transform="matrix(1,0,0,1,93,93)"/><path d="M 0 0 L 5 0 L 5 5 L 0 5 Z" fill="white" transform="matrix(1,0,0,1,98,93)"/><path d="M 0 0 L 6 0 L 6 5 L 0 5 Z" fill="#000000" transform="matrix(1,0,0,1,103,93)"/><path d="M 0 0 L 5 0 L 5 5 L 0 5 Z" fill="#000000" transform="matrix(1,0,0,1,109,93)"/><path d="M 0 0 L 5 0 L 5 5 L 0 5 Z" fill="white" transform="matrix(1,0,0,1,114,93)"/><path d="M 0 0 L 5 0 L 5 5 L 0 5 Z" fill="white" transform="matrix(1,0,0,1,119,93)"/><path d="M 0 0 L 5 0 L 5 5 L 0 5 Z" fill="white" transform="matrix(1,0,0,1,124,93)"/><path d="M 0 0 L 5 0 L 5 5 L 0 5 Z" fill="white" transform="matrix(1,0,0,1,129,93)"/><path d="M 0 0 L 6 0 L 6 5 L 0 5 Z" fill="#000000" transform="matrix(1,0,0,1,134,93)"/><path d="M 0 0 L 5 0 L 5 5 L 0 5 Z" fill="white" transform="matrix(1,0,0,1,140,93)"/><path d="M 0 0 L 5 0 L 5 5 L 0 5 Z" fill="white" transform="matrix(1,0,0,1,145,93)"/><path d="M 0 0 L 5 0 L 5 5 L 0 5 Z" fill="white" transform="matrix(1,0,0,1,0,98)"/><path d="M 0 0 L 5 0 L 5 5 L 0 5 Z" fill="white" transform="matrix(1,0,0,1,5,98)"/><path d="M 0 0 L 6 0 L 6 5 L 0 5 Z" fill="white" transform="matrix(1,0,0,1,10,98)"/><path d="M 0 0 L 5 0 L 5 5 L 0 5 Z" fill="#000000" transform="matrix(1,0,0,1,16,98)"/><path d="M 0 0 L 5 0 L 5 5 L 0 5 Z" fill="white" transform="matrix(1,0,0,1,21,98)"/><path d="M 0 0 L 5 0 L 5 5 L 0 5 Z" fill="#000000" transform="matrix(1,0,0,1,26,98)"/><path d="M 0 0 L 5 0 L 5 5 L 0 5 Z" fill="white" transform="matrix(1,0,0,1,31,98)"/><path d="M 0 0 L 5 0 L 5 5 L 0 5 Z" fill="#000000" transform="matrix(1,0,0,1,36,98)"/><path d="M 0 0 L 6 0 L 6 5 L 0 5 Z" fill="white" transform="matrix(1,0,0,1,41,98)"/><path d="M 0 0 L 5 0 L 5 5 L 0 5 Z" fill="white" transform="matrix(1,0,0,1,47,98)"/><path d="M 0 0 L 5 0 L 5 5 L 0 5 Z" fill="white" transform="matrix(1,0,0,1,52,98)"/><path d="M 0 0 L 5 0 L 5 5 L 0 5 Z" fill="white" transform="matrix(1,0,0,1,57,98)"/><path d="M 0 0 L 5 0 L 5 5 L 0 5 Z" fill="#000000" transform="matrix(1,0,0,1,62,98)"/><path d="M 0 0 L 5 0 L 5 5 L 0 5 Z" fill="white" transform="matrix(1,0,0,1,67,98)"/><path d="M 0 0 L 6 0 L 6 5 L 0 5 Z" fill="white" transform="matrix(1,0,0,1,72,98)"/><path d="M 0 0 L 5 0 L 5 5 L 0 5 Z" fill="#000000" transform="matrix(1,0,0,1,78,98)"/><path d="M 0 0 L 5 0 L 5 5 L 0 5 Z" fill="#000000" transform="matrix(1,0,0,1,83,98)"/><path d="M 0 0 L 5 0 L 5 5 L 0 5 Z" fill="#000000" transform="matrix(1,0,0,1,88,98)"/><path d="M 0 0 L 5 0 L 5 5 L 0 5 Z" fill="#000000" transform="matrix(1,0,0,1,93,98)"/><path d="M 0 0 L 5 0 L 5 5 L 0 5 Z" fill="white" transform="matrix(1,0,0,1,98,98)"/><path d="M 0 0 L 6 0 L 6 5 L 0 5 Z" fill="#000000" transform="matrix(1,0,0,1,103,98)"/><path d="M 0 0 L 5 0 L 5 5 L 0 5 Z" fill="#000000" transform="matrix(1,0,0,1,109,98)"/><path d="M 0 0 L 5 0 L 5 5 L 0 5 Z" fill="white" transform="matrix(1,0,0,1,114,98)"/><path d="M 0 0 L 5 0 L 5 5 L 0 5 Z" fill="white" transform="matrix(1,0,0,1,119,98)"/><path d="M 0 0 L 5 0 L 5 5 L 0 5 Z" fill="#000000" transform="matrix(1,0,0,1,124,98)"/><path d="M 0 0 L 5 0 L 5 5 L 0 5 Z" fill="white" transform="matrix(1,0,0,1,129,98)"/><path d="M 0 0 L 6 0 L 6 5 L 0 5 Z" fill="#000000" transform="matrix(1,0,0,1,134,98)"/><path d="M 0 0 L 5 0 L 5 5 L 0 5 Z" fill="white" transform="matrix(1,0,0,1,140,98)"/><path d="M 0 0 L 5 0 L 5 5 L 0 5 Z" fill="white" transform="matrix(1,0,0,1,145,98)"/><path d="M 0 0 L 5 0 L 5 6 L 0 6 Z" fill="white" transform="matrix(1,0,0,1,0,103)"/><path d="M 0 0 L 5 0 L 5 6 L 0 6 Z" fill="#000000" transform="matrix(1,0,0,1,5,103)"/><path d="M 0 0 L 6 0 L 6 6 L 0 6 Z" fill="#000000" transform="matrix(1,0,0,1,10,103)"/><path d="M 0 0 L 5 0 L 5 6 L 0 6 Z" fill="white" transform="matrix(1,0,0,1,16,103)"/><path d="M 0 0 L 5 0 L 5 6 L 0 6 Z" fill="white" transform="matrix(1,0,0,1,21,103)"/><path d="M 0 0 L 5 0 L 5 6 L 0 6 Z" fill="white" transform="matrix(1,0,0,1,26,103)"/><path d="M 0 0 L 5 0 L 5 6 L 0 6 Z" fill="#000000" transform="matrix(1,0,0,1,31,103)"/><path d="M 0 0 L 5 0 L 5 6 L 0 6 Z" fill="#000000" transform="matrix(1,0,0,1,36,103)"/><path d="M 0 0 L 6 0 L 6 6 L 0 6 Z" fill="#000000" transform="matrix(1,0,0,1,41,103)"/><path d="M 0 0 L 5 0 L 5 6 L 0 6 Z" fill="white" transform="matrix(1,0,0,1,47,103)"/><path d="M 0 0 L 5 0 L 5 6 L 0 6 Z" fill="white" transform="matrix(1,0,0,1,52,103)"/><path d="M 0 0 L 5 0 L 5 6 L 0 6 Z" fill="#000000" transform="matrix(1,0,0,1,57,103)"/><path d="M 0 0 L 5 0 L 5 6 L 0 6 Z" fill="#000000" transform="matrix(1,0,0,1,62,103)"/><path d="M 0 0 L 5 0 L 5 6 L 0 6 Z" fill="#000000" transform="matrix(1,0,0,1,67,103)"/><path d="M 0 0 L 6 0 L 6 6 L 0 6 Z" fill="white" transform="matrix(1,0,0,1,72,103)"/><path d="M 0 0 L 5 0 L 5 6 L 0 6 Z" fill="white" transform="matrix(1,0,0,1,78,103)"/><path d="M 0 0 L 5 0 L 5 6 L 0 6 Z" fill="white" transform="matrix(1,0,0,1,83,103)"/><path d="M 0 0 L 5 0 L 5 6 L 0 6 Z" fill="#000000" transform="matrix(1,0,0,1,88,103)"/><path d="M 0 0 L 5 0 L 5 6 L 0 6 Z" fill="white" transform="matrix(1,0,0,1,93,103)"/><path d="M 0 0 L 5 0 L 5 6 L 0 6 Z" fill="#000000" transform="matrix(1,0,0,1,98,103)"/><path d="M 0 0 L 6 0 L 6 6 L 0 6 Z" fill="#000000" transform="matrix(1,0,0,1,103,103)"/><path d="M 0 0 L 5 0 L 5 6 L 0 6 Z" fill="#000000" transform="matrix(1,0,0,1,109,103)"/><path d="M 0 0 L 5 0 L 5 6 L 0 6 Z" fill="#000000" transform="matrix(1,0,0,1,114,103)"/><path d="M 0 0 L 5 0 L 5 6 L 0 6 Z" fill="#000000" transform="matrix(1,0,0,1,119,103)"/><path d="M 0 0 L 5 0 L 5 6 L 0 6 Z" fill="#000000" transform="matrix(1,0,0,1,124,103)"/><path d="M 0 0 L 5 0 L 5 6 L 0 6 Z" fill="#000000" transform="matrix(1,0,0,1,129,103)"/><path d="M 0 0 L 6 0 L 6 6 L 0 6 Z" fill="#000000" transform="matrix(1,0,0,1,134,103)"/><path d="M 0 0 L 5 0 L 5 6 L 0 6 Z" fill="white" transform="matrix(1,0,0,1,140,103)"/><path d="M 0 0 L 5 0 L 5 6 L 0 6 Z" fill="white" transform="matrix(1,0,0,1,145,103)"/><path d="M 0 0 L 5 0 L 5 5 L 0 5 Z" fill="white" transform="matrix(1,0,0,1,0,109)"/><path d="M 0 0 L 5 0 L 5 5 L 0 5 Z" fill="white" transform="matrix(1,0,0,1,5,109)"/><path d="M 0 0 L 6 0 L 6 5 L 0 5 Z" fill="white" transform="matrix(1,0,0,1,10,109)"/><path d="M 0 0 L 5 0 L 5 5 L 0 5 Z" fill="white" transform="matrix(1,0,0,1,16,109)"/><path d="M 0 0 L 5 0 L 5 5 L 0 5 Z" fill="white" transform="matrix(1,0,0,1,21,109)"/><path d="M 0 0 L 5 0 L 5 5 L 0 5 Z" fill="white" transform="matrix(1,0,0,1,26,109)"/><path d="M 0 0 L 5 0 L 5 5 L 0 5 Z" fill="white" transform="matrix(1,0,0,1,31,109)"/><path d="M 0 0 L 5 0 L 5 5 L 0 5 Z" fill="white" transform="matrix(1,0,0,1,36,109)"/><path d="M 0 0 L 6 0 L 6 5 L 0 5 Z" fill="#000000" transform="matrix(1,0,0,1,41,109)"/><path d="M 0 0 L 5 0 L 5 5 L 0 5 Z" fill="white" transform="matrix(1,0,0,1,47,109)"/><path d="M 0 0 L 5 0 L 5 5 L 0 5 Z" fill="white" transform="matrix(1,0,0,1,52,109)"/><path d="M 0 0 L 5 0 L 5 5 L 0 5 Z" fill="white" transform="matrix(1,0,0,1,57,109)"/><path d="M 0 0 L 5 0 L 5 5 L 0 5 Z" fill="#000000" transform="matrix(1,0,0,1,62,109)"/><path d="M 0 0 L 5 0 L 5 5 L 0 5 Z" fill="#000000" transform="matrix(1,0,0,1,67,109)"/><path d="M 0 0 L 6 0 L 6 5 L 0 5 Z" fill="#000000" transform="matrix(1,0,0,1,72,109)"/><path d="M 0 0 L 5 0 L 5 5 L 0 5 Z" fill="white" transform="matrix(1,0,0,1,78,109)"/><path d="M 0 0 L 5 0 L 5 5 L 0 5 Z" fill="#000000" transform="matrix(1,0,0,1,83,109)"/><path d="M 0 0 L 5 0 L 5 5 L 0 5 Z" fill="white" transform="matrix(1,0,0,1,88,109)"/><path d="M 0 0 L 5 0 L 5 5 L 0 5 Z" fill="white" transform="matrix(1,0,0,1,93,109)"/><path d="M 0 0 L 5 0 L 5 5 L 0 5 Z" fill="white" transform="matrix(1,0,0,1,98,109)"/><path d="M 0 0 L 6 0 L 6 5 L 0 5 Z" fill="#000000" transform="matrix(1,0,0,1,103,109)"/><path d="M 0 0 L 5 0 L 5 5 L 0 5 Z" fill="white" transform="matrix(1,0,0,1,109,109)"/><path d="M 0 0 L 5 0 L 5 5 L 0 5 Z" fill="white" transform="matrix(1,0,0,1,114,109)"/><path d="M 0 0 L 5 0 L 5 5 L 0 5 Z" fill="white" transform="matrix(1,0,0,1,119,109)"/><path d="M 0 0 L 5 0 L 5 5 L 0 5 Z" fill="#000000" transform="matrix(1,0,0,1,124,109)"/><path d="M 0 0 L 5 0 L 5 5 L 0 5 Z" fill="#000000" transform="matrix(1,0,0,1,129,109)"/><path d="M 0 0 L 6 0 L 6 5 L 0 5 Z" fill="#000000" transform="matrix(1,0,0,1,134,109)"/><path d="M 0 0 L 5 0 L 5 5 L 0 5 Z" fill="#000000" transform="matrix(1,0,0,1,140,109)"/><path d="M 0 0 L 5 0 L 5 5 L 0 5 Z" fill="#000000" transform="matrix(1,0,0,1,145,109)"/><path d="M 0 0 L 5 0 L 5 5 L 0 5 Z" fill="#000000" transform="matrix(1,0,0,1,0,114)"/><path d="M 0 0 L 5 0 L 5 5 L 0 5 Z" fill="#000000" transform="matrix(1,0,0,1,5,114)"/><path d="M 0 0 L 6 0 L 6 5 L 0 5 Z" fill="#000000" transform="matrix(1,0,0,1,10,114)"/><path d="M 0 0 L 5 0 L 5 5 L 0 5 Z" fill="#000000" transform="matrix(1,0,0,1,16,114)"/><path d="M 0 0 L 5 0 L 5 5 L 0 5 Z" fill="#000000" transform="matrix(1,0,0,1,21,114)"/><path d="M 0 0 L 5 0 L 5 5 L 0 5 Z" fill="#000000" transform="matrix(1,0,0,1,26,114)"/><path d="M 0 0 L 5 0 L 5 5 L 0 5 Z" fill="#000000" transform="matrix(1,0,0,1,31,114)"/><path d="M 0 0 L 5 0 L 5 5 L 0 5 Z" fill="white" transform="matrix(1,0,0,1,36,114)"/><path d="M 0 0 L 6 0 L 6 5 L 0 5 Z" fill="white" transform="matrix(1,0,0,1,41,114)"/><path d="M 0 0 L 5 0 L 5 5 L 0 5 Z" fill="#000000" transform="matrix(1,0,0,1,47,114)"/><path d="M 0 0 L 5 0 L 5 5 L 0 5 Z" fill="#000000" transform="matrix(1,0,0,1,52,114)"/><path d="M 0 0 L 5 0 L 5 5 L 0 5 Z" fill="#000000" transform="matrix(1,0,0,1,57,114)"/><path d="M 0 0 L 5 0 L 5 5 L 0 5 Z" fill="#000000" transform="matrix(1,0,0,1,62,114)"/><path d="M 0 0 L 5 0 L 5 5 L 0 5 Z" fill="#000000" transform="matrix(1,0,0,1,67,114)"/><path d="M 0 0 L 6 0 L 6 5 L 0 5 Z" fill="white" transform="matrix(1,0,0,1,72,114)"/><path d="M 0 0 L 5 0 L 5 5 L 0 5 Z" fill="white" transform="matrix(1,0,0,1,78,114)"/><path d="M 0 0 L 5 0 L 5 5 L 0 5 Z" fill="#000000" transform="matrix(1,0,0,1,83,114)"/><path d="M 0 0 L 5 0 L 5 5 L 0 5 Z" fill="white" transform="matrix(1,0,0,1,88,114)"/><path d="M 0 0 L 5 0 L 5 5 L 0 5 Z" fill="white" transform="matrix(1,0,0,1,93,114)"/><path d="M 0 0 L 5 0 L 5 5 L 0 5 Z" fill="#000000" transform="matrix(1,0,0,1,98,114)"/><path d="M 0 0 L 6 0 L 6 5 L 0 5 Z" fill="#000000" transform="matrix(1,0,0,1,103,114)"/><path d="M 0 0 L 5 0 L 5 5 L 0 5 Z" fill="white" transform="matrix(1,0,0,1,109,114)"/><path d="M 0 0 L 5 0 L 5 5 L 0 5 Z" fill="#000000" transform="matrix(1,0,0,1,114,114)"/><path d="M 0 0 L 5 0 L 5 5 L 0 5 Z" fill="white" transform="matrix(1,0,0,1,119,114)"/><path d="M 0 0 L 5 0 L 5 5 L 0 5 Z" fill="#000000" transform="matrix(1,0,0,1,124,114)"/><path d="M 0 0 L 5 0 L 5 5 L 0 5 Z" fill="#000000" transform="matrix(1,0,0,1,129,114)"/><path d="M 0 0 L 6 0 L 6 5 L 0 5 Z" fill="white" transform="matrix(1,0,0,1,134,114)"/><path d="M 0 0 L 5 0 L 5 5 L 0 5 Z" fill="#000000" transform="matrix(1,0,0,1,140,114)"/><path d="M 0 0 L 5 0 L 5 5 L 0 5 Z" fill="white" transform="matrix(1,0,0,1,145,114)"/><path d="M 0 0 L 5 0 L 5 5 L 0 5 Z" fill="#000000" transform="matrix(1,0,0,1,0,119)"/><path d="M 0 0 L 5 0 L 5 5 L 0 5 Z" fill="white" transform="matrix(1,0,0,1,5,119)"/><path d="M 0 0 L 6 0 L 6 5 L 0 5 Z" fill="white" transform="matrix(1,0,0,1,10,119)"/><path d="M 0 0 L 5 0 L 5 5 L 0 5 Z" fill="white" transform="matrix(1,0,0,1,16,119)"/><path d="M 0 0 L 5 0 L 5 5 L 0 5 Z" fill="white" transform="matrix(1,0,0,1,21,119)"/><path d="M 0 0 L 5 0 L 5 5 L 0 5 Z" fill="white" transform="matrix(1,0,0,1,26,119)"/><path d="M 0 0 L 5 0 L 5 5 L 0 5 Z" fill="#000000" transform="matrix(1,0,0,1,31,119)"/><path d="M 0 0 L 5 0 L 5 5 L 0 5 Z" fill="white" transform="matrix(1,0,0,1,36,119)"/><path d="M 0 0 L 6 0 L 6 5 L 0 5 Z" fill="white" transform="matrix(1,0,0,1,41,119)"/><path d="M 0 0 L 5 0 L 5 5 L 0 5 Z" fill="white" transform="matrix(1,0,0,1,47,119)"/><path d="M 0 0 L 5 0 L 5 5 L 0 5 Z" fill="white" transform="matrix(1,0,0,1,52,119)"/><path d="M 0 0 L 5 0 L 5 5 L 0 5 Z" fill="white" transform="matrix(1,0,0,1,57,119)"/><path d="M 0 0 L 5 0 L 5 5 L 0 5 Z" fill="white" transform="matrix(1,0,0,1,62,119)"/><path d="M 0 0 L 5 0 L 5 5 L 0 5 Z" fill="white" transform="matrix(1,0,0,1,67,119)"/><path d="M 0 0 L 6 0 L 6 5 L 0 5 Z" fill="white" transform="matrix(1,0,0,1,72,119)"/><path d="M 0 0 L 5 0 L 5 5 L 0 5 Z" fill="white" transform="matrix(1,0,0,1,78,119)"/><path d="M 0 0 L 5 0 L 5 5 L 0 5 Z" fill="#000000" transform="matrix(1,0,0,1,83,119)"/><path d="M 0 0 L 5 0 L 5 5 L 0 5 Z" fill="white" transform="matrix(1,0,0,1,88,119)"/><path d="M 0 0 L 5 0 L 5 5 L 0 5 Z" fill="#000000" transform="matrix(1,0,0,1,93,119)"/><path d="M 0 0 L 5 0 L 5 5 L 0 5 Z" fill="white" transform="matrix(1,0,0,1,98,119)"/><path d="M 0 0 L 6 0 L 6 5 L 0 5 Z" fill="#000000" transform="matrix(1,0,0,1,103,119)"/><path d="M 0 0 L 5 0 L 5 5 L 0 5 Z" fill="white" transform="matrix(1,0,0,1,109,119)"/><path d="M 0 0 L 5 0 L 5 5 L 0 5 Z" fill="white" transform="matrix(1,0,0,1,114,119)"/><path d="M 0 0 L 5 0 L 5 5 L 0 5 Z" fill="white" transform="matrix(1,0,0,1,119,119)"/><path d="M 0 0 L 5 0 L 5 5 L 0 5 Z" fill="#000000" transform="matrix(1,0,0,1,124,119)"/><path d="M 0 0 L 5 0 L 5 5 L 0 5 Z" fill="#000000" transform="matrix(1,0,0,1,129,119)"/><path d="M 0 0 L 6 0 L 6 5 L 0 5 Z" fill="white" transform="matrix(1,0,0,1,134,119)"/><path d="M 0 0 L 5 0 L 5 5 L 0 5 Z" fill="#000000" transform="matrix(1,0,0,1,140,119)"/><path d="M 0 0 L 5 0 L 5 5 L 0 5 Z" fill="#000000" transform="matrix(1,0,0,1,145,119)"/><path d="M 0 0 L 5 0 L 5 5 L 0 5 Z" fill="#000000" transform="matrix(1,0,0,1,0,124)"/><path d="M 0 0 L 5 0 L 5 5 L 0 5 Z" fill="white" transform="matrix(1,0,0,1,5,124)"/><path d="M 0 0 L 6 0 L 6 5 L 0 5 Z" fill="#000000" transform="matrix(1,0,0,1,10,124)"/><path d="M 0 0 L 5 0 L 5 5 L 0 5 Z" fill="#000000" transform="matrix(1,0,0,1,16,124)"/><path d="M 0 0 L 5 0 L 5 5 L 0 5 Z" fill="#000000" transform="matrix(1,0,0,1,21,124)"/><path d="M 0 0 L 5 0 L 5 5 L 0 5 Z" fill="white" transform="matrix(1,0,0,1,26,124)"/><path d="M 0 0 L 5 0 L 5 5 L 0 5 Z" fill="#000000" transform="matrix(1,0,0,1,31,124)"/><path d="M 0 0 L 5 0 L 5 5 L 0 5 Z" fill="white" transform="matrix(1,0,0,1,36,124)"/><path d="M 0 0 L 6 0 L 6 5 L 0 5 Z" fill="white" transform="matrix(1,0,0,1,41,124)"/><path d="M 0 0 L 5 0 L 5 5 L 0 5 Z" fill="#000000" transform="matrix(1,0,0,1,47,124)"/><path d="M 0 0 L 5 0 L 5 5 L 0 5 Z" fill="#000000" transform="matrix(1,0,0,1,52,124)"/><path d="M 0 0 L 5 0 L 5 5 L 0 5 Z" fill="white" transform="matrix(1,0,0,1,57,124)"/><path d="M 0 0 L 5 0 L 5 5 L 0 5 Z" fill="#000000" transform="matrix(1,0,0,1,62,124)"/><path d="M 0 0 L 5 0 L 5 5 L 0 5 Z" fill="white" transform="matrix(1,0,0,1,67,124)"/><path d="M 0 0 L 6 0 L 6 5 L 0 5 Z" fill="#000000" transform="matrix(1,0,0,1,72,124)"/><path d="M 0 0 L 5 0 L 5 5 L 0 5 Z" fill="#000000" transform="matrix(1,0,0,1,78,124)"/><path d="M 0 0 L 5 0 L 5 5 L 0 5 Z" fill="#000000" transform="matrix(1,0,0,1,83,124)"/><path d="M 0 0 L 5 0 L 5 5 L 0 5 Z" fill="#000000" transform="matrix(1,0,0,1,88,124)"/><path d="M 0 0 L 5 0 L 5 5 L 0 5 Z" fill="white" transform="matrix(1,0,0,1,93,124)"/><path d="M 0 0 L 5 0 L 5 5 L 0 5 Z" fill="white" transform="matrix(1,0,0,1,98,124)"/><path d="M 0 0 L 6 0 L 6 5 L 0 5 Z" fill="#000000" transform="matrix(1,0,0,1,103,124)"/><path d="M 0 0 L 5 0 L 5 5 L 0 5 Z" fill="#000000" transform="matrix(1,0,0,1,109,124)"/><path d="M 0 0 L 5 0 L 5 5 L 0 5 Z" fill="#000000" transform="matrix(1,0,0,1,114,124)"/><path d="M 0 0 L 5 0 L 5 5 L 0 5 Z" fill="#000000" transform="matrix(1,0,0,1,119,124)"/><path d="M 0 0 L 5 0 L 5 5 L 0 5 Z" fill="#000000" transform="matrix(1,0,0,1,124,124)"/><path d="M 0 0 L 5 0 L 5 5 L 0 5 Z" fill="white" transform="matrix(1,0,0,1,129,124)"/><path d="M 0 0 L 6 0 L 6 5 L 0 5 Z" fill="#000000" transform="matrix(1,0,0,1,134,124)"/><path d="M 0 0 L 5 0 L 5 5 L 0 5 Z" fill="white" transform="matrix(1,0,0,1,140,124)"/><path d="M 0 0 L 5 0 L 5 5 L 0 5 Z" fill="white" transform="matrix(1,0,0,1,145,124)"/><path d="M 0 0 L 5 0 L 5 5 L 0 5 Z" fill="#000000" transform="matrix(1,0,0,1,0,129)"/><path d="M 0 0 L 5 0 L 5 5 L 0 5 Z" fill="white" transform="matrix(1,0,0,1,5,129)"/><path d="M 0 0 L 6 0 L 6 5 L 0 5 Z" fill="#000000" transform="matrix(1,0,0,1,10,129)"/><path d="M 0 0 L 5 0 L 5 5 L 0 5 Z" fill="#000000" transform="matrix(1,0,0,1,16,129)"/><path d="M 0 0 L 5 0 L 5 5 L 0 5 Z" fill="#000000" transform="matrix(1,0,0,1,21,129)"/><path d="M 0 0 L 5 0 L 5 5 L 0 5 Z" fill="white" transform="matrix(1,0,0,1,26,129)"/><path d="M 0 0 L 5 0 L 5 5 L 0 5 Z" fill="#000000" transform="matrix(1,0,0,1,31,129)"/><path d="M 0 0 L 5 0 L 5 5 L 0 5 Z" fill="white" transform="matrix(1,0,0,1,36,129)"/><path d="M 0 0 L 6 0 L 6 5 L 0 5 Z" fill="#000000" transform="matrix(1,0,0,1,41,129)"/><path d="M 0 0 L 5 0 L 5 5 L 0 5 Z" fill="#000000" transform="matrix(1,0,0,1,47,129)"/><path d="M 0 0 L 5 0 L 5 5 L 0 5 Z" fill="white" transform="matrix(1,0,0,1,52,129)"/><path d="M 0 0 L 5 0 L 5 5 L 0 5 Z" fill="#000000" transform="matrix(1,0,0,1,57,129)"/><path d="M 0 0 L 5 0 L 5 5 L 0 5 Z" fill="#000000" transform="matrix(1,0,0,1,62,129)"/><path d="M 0 0 L 5 0 L 5 5 L 0 5 Z" fill="white" transform="matrix(1,0,0,1,67,129)"/><path d="M 0 0 L 6 0 L 6 5 L 0 5 Z" fill="#000000" transform="matrix(1,0,0,1,72,129)"/><path d="M 0 0 L 5 0 L 5 5 L 0 5 Z" fill="#000000" transform="matrix(1,0,0,1,78,129)"/><path d="M 0 0 L 5 0 L 5 5 L 0 5 Z" fill="#000000" transform="matrix(1,0,0,1,83,129)"/><path d="M 0 0 L 5 0 L 5 5 L 0 5 Z" fill="#000000" transform="matrix(1,0,0,1,88,129)"/><path d="M 0 0 L 5 0 L 5 5 L 0 5 Z" fill="#000000" transform="matrix(1,0,0,1,93,129)"/><path d="M 0 0 L 5 0 L 5 5 L 0 5 Z" fill="white" transform="matrix(1,0,0,1,98,129)"/><path d="M 0 0 L 6 0 L 6 5 L 0 5 Z" fill="white" transform="matrix(1,0,0,1,103,129)"/><path d="M 0 0 L 5 0 L 5 5 L 0 5 Z" fill="#000000" transform="matrix(1,0,0,1,109,129)"/><path d="M 0 0 L 5 0 L 5 5 L 0 5 Z" fill="white" transform="matrix(1,0,0,1,114,129)"/><path d="M 0 0 L 5 0 L 5 5 L 0 5 Z" fill="#000000" transform="matrix(1,0,0,1,119,129)"/><path d="M 0 0 L 5 0 L 5 5 L 0 5 Z" fill="#000000" transform="matrix(1,0,0,1,124,129)"/><path d="M 0 0 L 5 0 L 5 5 L 0 5 Z" fill="#000000" transform="matrix(1,0,0,1,129,129)"/><path d="M 0 0 L 6 0 L 6 5 L 0 5 Z" fill="white" transform="matrix(1,0,0,1,134,129)"/><path d="M 0 0 L 5 0 L 5 5 L 0 5 Z" fill="white" transform="matrix(1,0,0,1,140,129)"/><path d="M 0 0 L 5 0 L 5 5 L 0 5 Z" fill="#000000" transform="matrix(1,0,0,1,145,129)"/><path d="M 0 0 L 5 0 L 5 6 L 0 6 Z" fill="#000000" transform="matrix(1,0,0,1,0,134)"/><path d="M 0 0 L 5 0 L 5 6 L 0 6 Z" fill="white" transform="matrix(1,0,0,1,5,134)"/><path d="M 0 0 L 6 0 L 6 6 L 0 6 Z" fill="#000000" transform="matrix(1,0,0,1,10,134)"/><path d="M 0 0 L 5 0 L 5 6 L 0 6 Z" fill="#000000" transform="matrix(1,0,0,1,16,134)"/><path d="M 0 0 L 5 0 L 5 6 L 0 6 Z" fill="#000000" transform="matrix(1,0,0,1,21,134)"/><path d="M 0 0 L 5 0 L 5 6 L 0 6 Z" fill="white" transform="matrix(1,0,0,1,26,134)"/><path d="M 0 0 L 5 0 L 5 6 L 0 6 Z" fill="#000000" transform="matrix(1,0,0,1,31,134)"/><path d="M 0 0 L 5 0 L 5 6 L 0 6 Z" fill="white" transform="matrix(1,0,0,1,36,134)"/><path d="M 0 0 L 6 0 L 6 6 L 0 6 Z" fill="#000000" transform="matrix(1,0,0,1,41,134)"/><path d="M 0 0 L 5 0 L 5 6 L 0 6 Z" fill="white" transform="matrix(1,0,0,1,47,134)"/><path d="M 0 0 L 5 0 L 5 6 L 0 6 Z" fill="white" transform="matrix(1,0,0,1,52,134)"/><path d="M 0 0 L 5 0 L 5 6 L 0 6 Z" fill="#000000" transform="matrix(1,0,0,1,57,134)"/><path d="M 0 0 L 5 0 L 5 6 L 0 6 Z" fill="white" transform="matrix(1,0,0,1,62,134)"/><path d="M 0 0 L 5 0 L 5 6 L 0 6 Z" fill="#000000" transform="matrix(1,0,0,1,67,134)"/><path d="M 0 0 L 6 0 L 6 6 L 0 6 Z" fill="white" transform="matrix(1,0,0,1,72,134)"/><path d="M 0 0 L 5 0 L 5 6 L 0 6 Z" fill="white" transform="matrix(1,0,0,1,78,134)"/><path d="M 0 0 L 5 0 L 5 6 L 0 6 Z" fill="white" transform="matrix(1,0,0,1,83,134)"/><path d="M 0 0 L 5 0 L 5 6 L 0 6 Z" fill="white" transform="matrix(1,0,0,1,88,134)"/><path d="M 0 0 L 5 0 L 5 6 L 0 6 Z" fill="white" transform="matrix(1,0,0,1,93,134)"/><path d="M 0 0 L 5 0 L 5 6 L 0 6 Z" fill="white" transform="matrix(1,0,0,1,98,134)"/><path d="M 0 0 L 6 0 L 6 6 L 0 6 Z" fill="#000000" transform="matrix(1,0,0,1,103,134)"/><path d="M 0 0 L 5 0 L 5 6 L 0 6 Z" fill="white" transform="matrix(1,0,0,1,109,134)"/><path d="M 0 0 L 5 0 L 5 6 L 0 6 Z" fill="white" transform="matrix(1,0,0,1,114,134)"/><path d="M 0 0 L 5 0 L 5 6 L 0 6 Z" fill="#000000" transform="matrix(1,0,0,1,119,134)"/><path d="M 0 0 L 5 0 L 5 6 L 0 6 Z" fill="white" transform="matrix(1,0,0,1,124,134)"/><path d="M 0 0 L 5 0 L 5 6 L 0 6 Z" fill="white" transform="matrix(1,0,0,1,129,134)"/><path d="M 0 0 L 6 0 L 6 6 L 0 6 Z" fill="#000000" transform="matrix(1,0,0,1,134,134)"/><path d="M 0 0 L 5 0 L 5 6 L 0 6 Z" fill="white" transform="matrix(1,0,0,1,140,134)"/><path d="M 0 0 L 5 0 L 5 6 L 0 6 Z" fill="#000000" transform="matrix(1,0,0,1,145,134)"/><path d="M 0 0 L 5 0 L 5 5 L 0 5 Z" fill="#000000" transform="matrix(1,0,0,1,0,140)"/><path d="M 0 0 L 5 0 L 5 5 L 0 5 Z" fill="white" transform="matrix(1,0,0,1,5,140)"/><path d="M 0 0 L 6 0 L 6 5 L 0 5 Z" fill="white" transform="matrix(1,0,0,1,10,140)"/><path d="M 0 0 L 5 0 L 5 5 L 0 5 Z" fill="white" transform="matrix(1,0,0,1,16,140)"/><path d="M 0 0 L 5 0 L 5 5 L 0 5 Z" fill="white" transform="matrix(1,0,0,1,21,140)"/><path d="M 0 0 L 5 0 L 5 5 L 0 5 Z" fill="white" transform="matrix(1,0,0,1,26,140)"/><path d="M 0 0 L 5 0 L 5 5 L 0 5 Z" fill="#000000" transform="matrix(1,0,0,1,31,140)"/><path d="M 0 0 L 5 0 L 5 5 L 0 5 Z" fill="white" transform="matrix(1,0,0,1,36,140)"/><path d="M 0 0 L 6 0 L 6 5 L 0 5 Z" fill="#000000" transform="matrix(1,0,0,1,41,140)"/><path d="M 0 0 L 5 0 L 5 5 L 0 5 Z" fill="#000000" transform="matrix(1,0,0,1,47,140)"/><path d="M 0 0 L 5 0 L 5 5 L 0 5 Z" fill="white" transform="matrix(1,0,0,1,52,140)"/><path d="M 0 0 L 5 0 L 5 5 L 0 5 Z" fill="#000000" transform="matrix(1,0,0,1,57,140)"/><path d="M 0 0 L 5 0 L 5 5 L 0 5 Z" fill="white" transform="matrix(1,0,0,1,62,140)"/><path d="M 0 0 L 5 0 L 5 5 L 0 5 Z" fill="white" transform="matrix(1,0,0,1,67,140)"/><path d="M 0 0 L 6 0 L 6 5 L 0 5 Z" fill="#000000" transform="matrix(1,0,0,1,72,140)"/><path d="M 0 0 L 5 0 L 5 5 L 0 5 Z" fill="#000000" transform="matrix(1,0,0,1,78,140)"/><path d="M 0 0 L 5 0 L 5 5 L 0 5 Z" fill="#000000" transform="matrix(1,0,0,1,83,140)"/><path d="M 0 0 L 5 0 L 5 5 L 0 5 Z" fill="white" transform="matrix(1,0,0,1,88,140)"/><path d="M 0 0 L 5 0 L 5 5 L 0 5 Z" fill="#000000" transform="matrix(1,0,0,1,93,140)"/><path d="M 0 0 L 5 0 L 5 5 L 0 5 Z" fill="white" transform="matrix(1,0,0,1,98,140)"/><path d="M 0 0 L 6 0 L 6 5 L 0 5 Z" fill="#000000" transform="matrix(1,0,0,1,103,140)"/><path d="M 0 0 L 5 0 L 5 5 L 0 5 Z" fill="#000000" transform="matrix(1,0,0,1,109,140)"/><path d="M 0 0 L 5 0 L 5 5 L 0 5 Z" fill="white" transform="matrix(1,0,0,1,114,140)"/><path d="M 0 0 L 5 0 L 5 5 L 0 5 Z" fill="#000000" transform="matrix(1,0,0,1,119,140)"/><path d="M 0 0 L 5 0 L 5 5 L 0 5 Z" fill="#000000" transform="matrix(1,0,0,1,124,140)"/><path d="M 0 0 L 5 0 L 5 5 L 0 5 Z" fill="#000000" transform="matrix(1,0,0,1,129,140)"/><path d="M 0 0 L 6 0 L 6 5 L 0 5 Z" fill="white" transform="matrix(1,0,0,1,134,140)"/><path d="M 0 0 L 5 0 L 5 5 L 0 5 Z" fill="#000000" transform="matrix(1,0,0,1,140,140)"/><path d="M 0 0 L 5 0 L 5 5 L 0 5 Z" fill="white" transform="matrix(1,0,0,1,145,140)"/><path d="M 0 0 L 5 0 L 5 5 L 0 5 Z" fill="#000000" transform="matrix(1,0,0,1,0,145)"/><path d="M 0 0 L 5 0 L 5 5 L 0 5 Z" fill="#000000" transform="matrix(1,0,0,1,5,145)"/><path d="M 0 0 L 6 0 L 6 5 L 0 5 Z" fill="#000000" transform="matrix(1,0,0,1,10,145)"/><path d="M 0 0 L 5 0 L 5 5 L 0 5 Z" fill="#000000" transform="matrix(1,0,0,1,16,145)"/><path d="M 0 0 L 5 0 L 5 5 L 0 5 Z" fill="#000000" transform="matrix(1,0,0,1,21,145)"/><path d="M 0 0 L 5 0 L 5 5 L 0 5 Z" fill="#000000" transform="matrix(1,0,0,1,26,145)"/><path d="M 0 0 L 5 0 L 5 5 L 0 5 Z" fill="#000000" transform="matrix(1,0,0,1,31,145)"/><path d="M 0 0 L 5 0 L 5 5 L 0 5 Z" fill="white" transform="matrix(1,0,0,1,36,145)"/><path d="M 0 0 L 6 0 L 6 5 L 0 5 Z" fill="#000000" transform="matrix(1,0,0,1,41,145)"/><path d="M 0 0 L 5 0 L 5 5 L 0 5 Z" fill="white" transform="matrix(1,0,0,1,47,145)"/><path d="M 0 0 L 5 0 L 5 5 L 0 5 Z" fill="#000000" transform="matrix(1,0,0,1,52,145)"/><path d="M 0 0 L 5 0 L 5 5 L 0 5 Z" fill="white" transform="matrix(1,0,0,1,57,145)"/><path d="M 0 0 L 5 0 L 5 5 L 0 5 Z" fill="#000000" transform="matrix(1,0,0,1,62,145)"/><path d="M 0 0 L 5 0 L 5 5 L 0 5 Z" fill="white" transform="matrix(1,0,0,1,67,145)"/><path d="M 0 0 L 6 0 L 6 5 L 0 5 Z" fill="#000000" transform="matrix(1,0,0,1,72,145)"/><path d="M 0 0 L 5 0 L 5 5 L 0 5 Z" fill="white" transform="matrix(1,0,0,1,78,145)"/><path d="M 0 0 L 5 0 L 5 5 L 0 5 Z" fill="white" transform="matrix(1,0,0,1,83,145)"/><path d="M 0 0 L 5 0 L 5 5 L 0 5 Z" fill="white" transform="matrix(1,0,0,1,88,145)"/><path d="M 0 0 L 5 0 L 5 5 L 0 5 Z" fill="#000000" transform="matrix(1,0,0,1,93,145)"/><path d="M 0 0 L 5 0 L 5 5 L 0 5 Z" fill="white" transform="matrix(1,0,0,1,98,145)"/><path d="M 0 0 L 6 0 L 6 5 L 0 5 Z" fill="#000000" transform="matrix(1,0,0,1,103,145)"/><path d="M 0 0 L 5 0 L 5 5 L 0 5 Z" fill="white" transform="matrix(1,0,0,1,109,145)"/><path d="M 0 0 L 5 0 L 5 5 L 0 5 Z" fill="#000000" transform="matrix(1,0,0,1,114,145)"/><path d="M 0 0 L 5 0 L 5 5 L 0 5 Z" fill="#000000" transform="matrix(1,0,0,1,119,145)"/><path d="M 0 0 L 5 0 L 5 5 L 0 5 Z" fill="white" transform="matrix(1,0,0,1,124,145)"/><path d="M 0 0 L 5 0 L 5 5 L 0 5 Z" fill="white" transform="matrix(1,0,0,1,129,145)"/><path d="M 0 0 L 6 0 L 6 5 L 0 5 Z" fill="white" transform="matrix(1,0,0,1,134,145)"/><path d="M 0 0 L 5 0 L 5 5 L 0 5 Z" fill="#000000" transform="matrix(1,0,0,1,140,145)"/><path d="M 0 0 L 5 0 L 5 5 L 0 5 Z" fill="white" transform="matrix(1,0,0,1,145,145)"/></svg>